<svg width="37" height="35" viewBox="0 0 37 35" fill="none" xmlns="http://www.w3.org/2000/svg">
<path d="M29.0791 29.0518V31.3962C29.0793 31.5377 29.0514 31.6779 28.9973 31.8087C28.9431 31.9395 28.8639 32.0582 28.7637 32.1583C28.6636 32.2583 28.5446 32.3375 28.4138 32.3915C28.283 32.4455 28.1428 32.4733 28.0013 32.473H25.8457C25.7041 32.4733 25.564 32.4455 25.4331 32.3915C25.3023 32.3375 25.1834 32.2583 25.0833 32.1583C24.9832 32.0582 24.9038 31.9395 24.8496 31.8087C24.7955 31.6779 24.7678 31.5377 24.7679 31.3962V29.0518M12.3764 29.0518V31.3962C12.3765 31.5377 12.3488 31.6779 12.2947 31.8087C12.2405 31.9395 12.1611 32.0582 12.061 32.1583C11.9609 32.2583 11.842 32.3375 11.7112 32.3915C11.5804 32.4455 11.44 32.4733 11.2985 32.473H9.14292C9.00139 32.4733 8.86122 32.4455 8.73039 32.3915C8.59957 32.3375 8.4807 32.2583 8.38057 32.1583C8.28045 32.0582 8.20104 31.9395 8.14691 31.8087C8.09278 31.6779 8.06504 31.5377 8.06518 31.3962V29.0518" fill="#2B4255"/>
<path d="M31.2337 29.1803H5.90958V5.56943C5.90929 5.20817 5.98028 4.85048 6.11859 4.51675C6.2569 4.18302 6.45971 3.87986 6.71547 3.62471C6.97123 3.36957 7.27492 3.16736 7.60898 3.02984C7.94305 2.89233 8.30094 2.82222 8.6622 2.82338H28.4809C28.8422 2.82222 29.2001 2.89233 29.5341 3.02984C29.8682 3.16736 30.1719 3.36957 30.4276 3.62471C30.6834 3.87986 30.8862 4.18302 31.0245 4.51675C31.1628 4.85048 31.2339 5.20817 31.2337 5.56943V29.1803Z" fill="#F8B84E"/>
<path d="M4.85261 23.699H32.2917V26.9917H4.85261V23.699Z" fill="#34485C"/>
<path d="M6.556 8.42201H18.4097V19.3976H6.556V8.42201ZM18.7916 8.42201H30.3731V19.3976H18.7916V8.42201Z" fill="#4BBFEB"/>
<path fill-rule="evenodd" clip-rule="evenodd" d="M5.90958 7.66366V8.76122H31.2237V7.66366H5.90958ZM5.90958 18.9773V20.0749H31.2523V18.9773H5.90958Z" fill="#34485C"/>
<path fill-rule="evenodd" clip-rule="evenodd" d="M7.73479 21.1329V22.2305H11.0275V21.1329H7.73479ZM26.0553 21.1329V22.2305H29.348V21.1329H26.0553Z" fill="#F05542"/>
<path fill-rule="evenodd" clip-rule="evenodd" d="M18.0234 8.11356V19.4185H19.1209V8.11356H18.0234Z" fill="#34485C"/>
<path fill-rule="evenodd" clip-rule="evenodd" d="M3.20627 9.82475V14.4158H4.30383V10.9223H5.95018V9.82475H3.20627ZM31.1941 9.82475V10.9223H32.8405V14.4158H33.938V9.82475H31.1941Z" fill="#576D7E"/>
<path fill-rule="evenodd" clip-rule="evenodd" d="M5.90958 8.11356V19.4185H7.00714V8.11356H5.90958ZM30.1547 8.11356V19.4185H31.2523V8.11356H30.1547Z" fill="#34485C"/>
</svg>
