<svg width="17" height="10" viewBox="0 0 17 10" fill="none" xmlns="http://www.w3.org/2000/svg">
<path d="M16.051 0.465522C15.7667 0.167358 15.382 0 14.981 0C14.58 0 14.1953 0.167358 13.9109 0.465522L8.46205 6.13261L3.08905 0.465522C2.80468 0.167358 2.41999 0 2.01901 0C1.61803 0 1.23334 0.167358 0.948962 0.465522C0.806701 0.614344 0.693785 0.791402 0.616729 0.986483C0.539672 1.18156 0.5 1.39081 0.5 1.60214C0.5 1.81348 0.539672 2.02272 0.616729 2.2178C0.693785 2.41288 0.806701 2.58994 0.948962 2.73876L7.38442 9.52646C7.52552 9.67651 7.69339 9.79561 7.87835 9.87688C8.0633 9.95815 8.26169 10 8.46205 10C8.66242 10 8.86081 9.95815 9.04576 9.87688C9.23072 9.79561 9.39859 9.67651 9.53969 9.52646L16.051 2.73876C16.1933 2.58994 16.3062 2.41288 16.3833 2.2178C16.4603 2.02272 16.5 1.81348 16.5 1.60214C16.5 1.39081 16.4603 1.18156 16.3833 0.986483C16.3062 0.791402 16.1933 0.614344 16.051 0.465522Z" fill="black"/>
</svg>
