<svg width="225" height="138" viewBox="0 0 225 138" fill="none" xmlns="http://www.w3.org/2000/svg">
<path d="M41.258 27.4478C41.4039 28.1409 41.4039 28.8705 41.258 29.6365C41.1851 30.0013 41.1121 30.3661 41.0392 30.7309C41.0027 31.0592 40.948 31.4058 40.875 31.7706L40.8203 31.9895C40.3096 34.2512 39.7259 36.6406 39.0693 39.1576C38.4491 41.6382 37.8837 43.9911 37.373 46.2164C36.9352 48.0403 36.4792 50.0467 36.005 52.2354C35.5308 54.4242 35.0383 56.4306 34.5276 58.2545C34.3452 58.8747 34.1446 59.4948 33.9257 60.115C33.7433 60.7351 33.5062 61.3553 33.2144 61.9754C32.959 62.5226 32.6489 63.0151 32.2841 63.4528C31.9558 63.8541 31.5728 64.1459 31.135 64.3283C30.6973 64.5472 30.2231 64.6201 29.7123 64.5472C29.2381 64.5107 28.7092 64.2918 28.1255 63.8906C27.25 63.2704 26.5934 62.4132 26.1556 61.3188C25.7543 60.2244 25.3348 59.2212 24.8971 58.3092C24.7512 58.0539 24.5323 57.4885 24.2405 56.613C23.9486 55.7375 23.6386 54.789 23.3102 53.7676C22.9819 52.7097 22.6536 51.7065 22.3253 50.758C22.0335 49.7731 21.7781 49.0435 21.5592 48.5693C21.2309 49.3718 20.9026 50.2838 20.5743 51.3052C20.246 52.3266 19.9359 53.3298 19.6441 54.3148C19.3522 55.2997 19.0786 56.1934 18.8233 56.996C18.6044 57.762 18.4403 58.3275 18.3308 58.6923C18.039 59.4219 17.7107 60.2244 17.3459 61.0999C17.0176 61.9754 16.5981 62.7232 16.0873 63.3434C15.6131 63.9635 15.0295 64.3648 14.3363 64.5472C13.6432 64.7661 12.8225 64.5654 11.874 63.9453C11.1444 63.5075 10.6337 62.8874 10.3419 62.0848C10.1595 61.5741 9.97707 61.0817 9.79468 60.6074C9.61228 60.1332 9.46636 59.6407 9.35693 59.13L8.26255 55.0261L6.01908 46.2164C5.72724 45.0855 5.43541 43.9364 5.14357 42.7691C4.88822 41.5653 4.57815 40.325 4.21335 39.0482C4.03096 38.428 3.8668 37.8261 3.72088 37.2425C3.61145 36.6223 3.48377 35.9657 3.33785 35.2726C3.22841 34.543 3.0825 33.7222 2.9001 32.8102C2.75418 31.8983 2.57179 30.8404 2.35291 29.6365C2.27995 29.2353 2.22523 28.8705 2.18875 28.5422C2.18875 28.1774 2.22523 27.8126 2.29819 27.4478C2.37115 26.9006 2.62651 26.4264 3.06426 26.0251C3.24665 25.8427 3.46553 25.6968 3.72088 25.5874C3.97624 25.4779 4.24983 25.3867 4.54167 25.3138C4.97942 25.1678 5.43541 25.0949 5.90964 25.0949C6.34739 25.0949 6.80338 25.2408 7.27761 25.5326C7.60592 25.715 7.86128 25.9521 8.04367 26.244L8.7003 27.3931C8.77326 27.6484 8.84622 27.8855 8.91918 28.1044C8.99213 28.2868 9.06509 28.4875 9.13805 28.7063C9.21101 28.9617 9.26573 29.1988 9.30221 29.4177C9.33869 29.6001 9.37517 29.7825 9.41165 29.9649C9.73996 31.8618 10.1412 33.704 10.6155 35.4915C11.0897 37.279 11.5274 38.9935 11.9287 40.635C12.0746 41.2917 12.257 42.1125 12.4759 43.0974C12.6948 44.0459 12.9137 45.049 13.1325 46.1069C13.3514 47.1283 13.5703 48.1133 13.7892 49.0617C14.008 50.0102 14.2269 50.758 14.4458 51.3052C14.92 49.6637 15.3942 48.0221 15.8685 46.3805C16.3792 44.739 16.9264 43.0792 17.51 41.4011C17.8019 40.5256 18.0937 39.7413 18.3855 39.0482C18.7139 38.3186 19.0786 37.7167 19.4799 37.2425C19.8812 36.7682 20.3372 36.4582 20.8479 36.3123C21.3586 36.1663 21.9605 36.2211 22.6536 36.4764C23.2738 36.7318 23.8209 37.279 24.2952 38.118C24.7694 38.957 25.1889 39.8143 25.5537 40.6898C25.882 41.4923 26.1921 42.3496 26.4839 43.2615C26.8122 44.137 27.1223 45.0126 27.4142 45.8881C27.7425 46.7271 28.0525 47.5296 28.3444 48.2957C28.6362 49.0617 28.928 49.7184 29.2199 50.2656C29.3293 49.8643 29.457 49.3536 29.6029 48.7334C29.7488 48.1133 29.8947 47.4567 30.0407 46.7636C30.2231 46.034 30.3872 45.3226 30.5331 44.6295C30.679 43.9364 30.825 43.298 30.9709 42.7144C31.4451 40.7445 31.9376 38.7746 32.4483 36.8047C32.959 34.7984 33.4515 32.8285 33.9257 30.8951L34.1993 29.9649C34.2723 29.7825 34.3087 29.6001 34.3087 29.4177C34.3452 29.1988 34.3999 28.9617 34.4729 28.7063C34.5458 28.4875 34.6188 28.2868 34.6918 28.1044C34.7647 27.8855 34.8377 27.6484 34.9106 27.3931C34.9836 27.2107 35.0566 27.0283 35.1295 26.8459C35.239 26.627 35.3666 26.4264 35.5125 26.244C35.622 26.0616 35.7497 25.9157 35.8956 25.8062C36.0415 25.6968 36.1874 25.6056 36.3333 25.5326C36.844 25.2408 37.2818 25.0949 37.6466 25.0949C38.1208 25.0949 38.5768 25.1678 39.0146 25.3138C39.5982 25.4232 40.1272 25.6603 40.6014 26.0251C40.9662 26.3899 41.1851 26.8641 41.258 27.4478ZM63.3029 53.2204C63.3394 53.95 63.3576 54.716 63.3576 55.5186C63.3576 56.2846 63.3394 56.996 63.3029 57.6526C63.2664 58.6376 63.2117 59.5495 63.1387 60.3886C63.0658 61.1911 62.9199 61.8842 62.701 62.4679C62.4821 63.0151 62.1356 63.4346 61.6613 63.7264C61.2236 63.9818 60.6034 64.0547 59.8009 63.9453C58.9619 63.8358 58.36 63.4346 57.9952 62.7415C57.6304 62.0484 57.375 61.2641 57.2291 60.3886C57.1197 59.4766 57.0832 58.5646 57.1197 57.6526C57.1561 56.7406 57.1561 56.0293 57.1197 55.5186C57.0832 54.716 57.0467 53.8041 57.0102 52.7826C57.0102 51.7247 56.9008 50.7398 56.6819 49.8278C56.4995 48.8794 56.1712 48.0768 55.697 47.4202C55.2227 46.7636 54.5114 46.417 53.5629 46.3805C52.3591 46.3076 51.4289 46.3988 50.7723 46.6541C50.1521 46.9095 49.6961 47.2925 49.4043 47.8032C49.1125 48.2774 48.9301 48.8611 48.8571 49.5542C48.8206 50.2473 48.7477 50.9951 48.6382 51.7977L48.5835 53.9317V57.9262C48.5835 58.5828 48.5653 59.2759 48.5288 60.0055C48.5288 60.6986 48.4194 61.337 48.2005 61.9207C47.9816 62.5044 47.6351 62.9968 47.1608 63.3981C46.7231 63.7994 46.0664 64 45.1909 64C44.0966 64 43.2758 63.6534 42.7286 62.9603C42.2179 62.2308 41.9625 61.337 41.9625 60.2791V28.8158C41.9625 28.5969 41.9625 28.3963 41.9625 28.2139C41.999 27.995 42.0355 27.7761 42.072 27.5572C42.1449 27.3384 42.1996 27.1377 42.2361 26.9553C42.2726 26.7364 42.3273 26.5358 42.4003 26.3534C42.5097 25.9886 42.6921 25.715 42.9475 25.5326C43.1299 25.3502 43.3123 25.2043 43.4947 25.0949C43.6771 24.9854 43.8777 24.9125 44.0966 24.876C44.279 24.8395 44.4796 24.8213 44.6985 24.8213C44.9174 24.7848 45.1362 24.7666 45.3551 24.7666C45.9023 24.7666 46.4312 24.9307 46.9419 25.259C47.1608 25.405 47.3615 25.5691 47.5439 25.7515C47.7263 25.8974 47.8722 26.1163 47.9816 26.4081C48.2734 27.1012 48.4194 27.7579 48.4194 28.378C48.4558 28.5604 48.4741 28.834 48.4741 29.1988C48.5106 29.5271 48.5288 29.8737 48.5288 30.2385C48.5288 30.6032 48.5288 30.968 48.5288 31.3328C48.5653 31.6611 48.5835 31.9165 48.5835 32.0989V32.3725C48.62 33.5398 48.6382 34.7254 48.6382 35.9292C48.6382 37.133 48.6382 38.3551 48.6382 39.5954V40.5256C50.1704 40.0149 51.7754 39.7778 53.4535 39.8143C55.1315 39.8143 56.6272 40.1426 57.9404 40.7992C59.2902 41.4923 60.3116 42.2766 61.0047 43.1521C61.7343 44.0276 62.2632 44.9943 62.5915 46.0522C62.9199 47.1101 63.1023 48.241 63.1387 49.4448C63.2117 50.6486 63.2664 51.9071 63.3029 53.2204ZM82.8213 56.5035C83.259 56.3941 83.6968 56.3211 84.1345 56.2846C84.6088 56.2482 85.0283 56.3029 85.3931 56.4488C85.7943 56.5947 86.1227 56.8501 86.378 57.2149C86.6334 57.5432 86.761 58.0174 86.761 58.6376C86.761 59.0753 86.6516 59.4948 86.4327 59.8961C86.2139 60.2974 85.9403 60.6621 85.6119 60.9905C85.2836 61.3188 84.9188 61.6106 84.5176 61.866C84.1163 62.0848 83.7333 62.2672 83.3685 62.4132C82.3106 62.8874 81.0885 63.2522 79.7023 63.5075C78.3526 63.7629 76.9481 63.8541 75.489 63.7811C73.5191 63.7082 71.6222 63.3251 69.7982 62.632C68.0107 61.9024 66.6063 60.7169 65.5848 59.0753C64.6364 57.4702 64.0709 55.6827 63.8886 53.7129C63.7062 51.743 63.7974 49.8825 64.1621 48.1315C64.5634 46.0157 65.2383 44.3012 66.1867 42.988C67.1717 41.6382 68.339 40.5621 69.6888 39.7595C71.3303 38.8111 73.1725 38.3186 75.2154 38.2821C77.2582 38.2457 79.2098 38.6469 81.0703 39.4859C82.3106 40.0331 83.4232 40.781 84.4081 41.7294C85.3931 42.6414 86.1409 43.754 86.6516 45.0673C86.7975 45.3956 86.907 45.7969 86.9799 46.2711C87.0894 46.7453 87.1623 47.256 87.1988 47.8032C87.2353 48.3139 87.2353 48.8246 87.1988 49.3353C87.1623 49.8461 87.0711 50.302 86.9252 50.7033C86.7063 51.3599 86.4327 51.8707 86.1044 52.2354C85.7761 52.6002 85.3566 52.8738 84.8459 53.0562C84.3352 53.2386 83.715 53.3663 82.9854 53.4393C82.2923 53.4757 81.4533 53.5122 80.4684 53.5487C79.5929 53.5852 78.7721 53.6034 78.006 53.6034C77.24 53.6034 76.4557 53.6034 75.6531 53.6034C74.8506 53.5669 74.0115 53.5487 73.136 53.5487C72.297 53.5122 71.3486 53.4757 70.2907 53.4393C70.1812 54.1688 70.2724 54.8072 70.5643 55.3544C70.8926 55.8651 71.3303 56.3029 71.8775 56.6677C72.4247 56.996 73.0448 57.2513 73.738 57.4337C74.4311 57.6161 75.1059 57.7256 75.7625 57.762C77.0028 57.835 78.1884 57.7438 79.3193 57.4885C80.4501 57.1966 81.6175 56.8683 82.8213 56.5035ZM80.4684 45.8881C79.7753 45.0855 79.0457 44.5018 78.2796 44.1371C77.6959 43.8817 77.0758 43.7723 76.4192 43.8087C75.799 43.8087 75.1971 43.8999 74.6135 44.0823C73.5556 44.3377 72.6618 44.8849 71.9322 45.7239C71.8593 45.7969 71.7316 45.9793 71.5492 46.2711C71.3668 46.5264 71.1844 46.8 71.002 47.0919C70.8561 47.3837 70.7467 47.6573 70.6737 47.9127C70.6007 48.168 70.6372 48.2957 70.7831 48.2957H81.508C81.4716 47.785 81.3804 47.3655 81.2344 47.0372C81.0885 46.6724 80.8332 46.2893 80.4684 45.8881ZM87.8464 44.6295C87.8464 44.1918 87.8464 43.6993 87.8464 43.1521C87.8464 42.5684 87.8647 41.9848 87.9012 41.4011C87.9376 40.781 87.9924 40.1973 88.0653 39.6501C88.1748 39.0664 88.3207 38.5557 88.5031 38.118C88.7949 37.4613 89.2509 37.0236 89.871 36.8047C90.4912 36.5494 91.1661 36.4399 91.8956 36.4764C92.6617 36.4764 93.2636 36.6041 93.7014 36.8594C94.1391 37.1148 94.4674 37.4613 94.6863 37.8991C94.9052 38.3004 95.0329 38.7746 95.0693 39.3218C95.1423 39.8325 95.1788 40.3797 95.1788 40.9634C95.5071 40.3797 95.9448 39.9055 96.492 39.5407C97.0757 39.1759 97.6594 38.884 98.243 38.6652C98.8267 38.4463 99.3556 38.3004 99.8299 38.2274C100.304 38.118 100.578 38.0633 100.651 38.0633C101.563 37.9903 102.383 37.9721 103.113 38.0085C103.879 38.045 104.718 38.2092 105.63 38.501C106.214 38.7199 106.816 39.03 107.436 39.4312C108.056 39.796 108.603 40.2338 109.077 40.7445C109.552 41.2552 109.862 41.8206 110.008 42.4408C110.19 43.0244 110.117 43.6446 109.789 44.3012C109.278 45.2132 108.713 45.6692 108.092 45.6692C107.472 45.6327 106.797 45.5233 106.068 45.3409C105.667 45.2679 105.192 45.1037 104.645 44.8484C104.098 44.593 103.624 44.4289 103.222 44.3559C101.982 44.1735 100.888 44.2647 99.9393 44.6295C98.9909 44.9943 98.1701 45.4321 97.477 45.9428C96.6744 46.5629 95.9813 47.2743 95.3976 48.0768V55.9563C95.3976 56.9413 95.3794 57.9627 95.3429 59.0206C95.3429 60.0785 95.197 61.0452 94.9052 61.9207C94.6498 62.7597 94.1938 63.4528 93.5372 64C92.9171 64.5107 92.0051 64.7296 90.8013 64.6566C90.1446 64.6201 89.561 64.3101 89.0503 63.7264C88.5395 63.1063 88.2295 62.5044 88.12 61.9207C88.0471 61.3735 87.9924 60.7169 87.9559 59.9508C87.9194 59.1847 87.8829 58.3822 87.8464 57.5432C87.8464 56.7042 87.8464 55.8651 87.8464 55.0261C87.8464 54.1506 87.8464 53.3481 87.8464 52.6185V44.6295ZM126.353 56.5035C126.79 56.3941 127.228 56.3211 127.666 56.2846C128.14 56.2482 128.56 56.3029 128.924 56.4488C129.326 56.5947 129.654 56.8501 129.909 57.2149C130.165 57.5432 130.292 58.0174 130.292 58.6376C130.292 59.0753 130.183 59.4948 129.964 59.8961C129.745 60.2974 129.472 60.6621 129.143 60.9905C128.815 61.3188 128.45 61.6106 128.049 61.866C127.648 62.0848 127.265 62.2672 126.9 62.4132C125.842 62.8874 124.62 63.2522 123.234 63.5075C121.884 63.7629 120.48 63.8541 119.02 63.7811C117.051 63.7082 115.154 63.3251 113.33 62.632C111.542 61.9024 110.138 60.7169 109.116 59.0753C108.168 57.4702 107.602 55.6827 107.42 53.7129C107.238 51.743 107.329 49.8825 107.694 48.1315C108.095 46.0157 108.77 44.3012 109.718 42.988C110.703 41.6382 111.87 40.5621 113.22 39.7595C114.862 38.8111 116.704 38.3186 118.747 38.2821C120.79 38.2457 122.741 38.6469 124.602 39.4859C125.842 40.0331 126.955 40.781 127.94 41.7294C128.924 42.6414 129.672 43.754 130.183 45.0673C130.329 45.3956 130.438 45.7969 130.511 46.2711C130.621 46.7453 130.694 47.256 130.73 47.8032C130.767 48.3139 130.767 48.8246 130.73 49.3353C130.694 49.8461 130.603 50.302 130.457 50.7033C130.238 51.3599 129.964 51.8707 129.636 52.2354C129.308 52.6002 128.888 52.8738 128.377 53.0562C127.867 53.2386 127.246 53.3663 126.517 53.4393C125.824 53.4757 124.985 53.5122 124 53.5487C123.124 53.5852 122.304 53.6034 121.537 53.6034C120.771 53.6034 119.987 53.6034 119.185 53.6034C118.382 53.5669 117.543 53.5487 116.667 53.5487C115.828 53.5122 114.88 53.4757 113.822 53.4393C113.713 54.1688 113.804 54.8072 114.096 55.3544C114.424 55.8651 114.862 56.3029 115.409 56.6677C115.956 56.996 116.576 57.2513 117.269 57.4337C117.962 57.6161 118.637 57.7256 119.294 57.762C120.534 57.835 121.72 57.7438 122.851 57.4885C123.982 57.1966 125.149 56.8683 126.353 56.5035ZM124 45.8881C123.307 45.0855 122.577 44.5018 121.811 44.1371C121.227 43.8817 120.607 43.7723 119.951 43.8087C119.33 43.8087 118.729 43.8999 118.145 44.0823C117.087 44.3377 116.193 44.8849 115.464 45.7239C115.391 45.7969 115.263 45.9793 115.081 46.2711C114.898 46.5264 114.716 46.8 114.533 47.0919C114.388 47.3837 114.278 47.6573 114.205 47.9127C114.132 48.168 114.169 48.2957 114.315 48.2957H125.039C125.003 47.785 124.912 47.3655 124.766 47.0372C124.62 46.6724 124.365 46.2893 124 45.8881ZM150.792 43.2615C150.792 44.283 150.792 45.4321 150.792 46.7088C150.829 47.9856 150.847 49.3171 150.847 50.7033C150.847 52.053 150.847 53.4028 150.847 54.7525C150.847 56.0658 150.829 57.2878 150.792 58.4187C150.756 58.9659 150.701 59.5678 150.628 60.2244C150.555 60.8445 150.409 61.4282 150.19 61.9754C149.972 62.5226 149.625 62.9786 149.151 63.3434C148.713 63.6717 148.111 63.8176 147.345 63.7811C146.214 63.7082 145.393 63.2157 144.883 62.3037C144.409 61.3917 144.135 60.115 144.062 58.4734C144.062 57.6344 144.044 56.6677 144.007 55.5733C144.007 54.4789 143.989 53.3663 143.953 52.2354C143.953 51.1046 143.953 50.0102 143.953 48.9523C143.953 47.8579 143.953 46.873 143.953 45.9975C143.953 45.4868 143.934 44.8666 143.898 44.1371C143.898 43.4075 143.916 42.6596 143.953 41.8936C143.989 41.1275 144.08 40.3979 144.226 39.7048C144.372 38.9752 144.609 38.3733 144.937 37.8991C145.193 37.6073 145.558 37.3884 146.032 37.2425C146.506 37.0601 146.999 36.9689 147.509 36.9689C148.056 36.9689 148.567 37.0601 149.041 37.2425C149.552 37.4249 149.917 37.6802 150.136 38.0085C150.282 38.2274 150.391 38.5375 150.464 38.9388C150.537 39.34 150.592 39.796 150.628 40.3067C150.701 40.781 150.738 41.2917 150.738 41.8389C150.774 42.3496 150.792 42.8238 150.792 43.2615ZM148.713 32.2083C147.582 32.5002 146.634 32.3907 145.868 31.88C145.138 31.3328 144.682 30.5303 144.5 29.4724C144.354 28.7063 144.409 28.0315 144.664 27.4478C144.919 26.8641 145.302 26.4264 145.813 26.1345C146.324 25.8062 146.907 25.6603 147.564 25.6968C148.221 25.7333 148.877 25.9886 149.534 26.4629C150.154 26.9006 150.592 27.4113 150.847 27.995C151.139 28.5787 151.23 29.1441 151.121 29.6913C151.048 30.2385 150.811 30.7492 150.409 31.2234C150.008 31.6611 149.443 31.9895 148.713 32.2083ZM164.848 54.3695C164.155 53.9317 163.37 53.5852 162.495 53.3298C161.656 53.0745 160.78 52.8374 159.868 52.6185C158.993 52.3996 158.136 52.1625 157.297 51.9071C156.458 51.6153 155.692 51.214 154.998 50.7033C153.503 49.5725 152.627 48.1862 152.372 46.5447C152.153 44.8666 152.518 43.1886 153.466 41.5105C153.977 40.635 154.652 39.9237 155.491 39.3765C156.33 38.7928 157.242 38.3551 158.227 38.0633C159.248 37.7349 160.288 37.5525 161.346 37.5161C162.404 37.4796 163.407 37.5343 164.355 37.6802C164.976 37.7897 165.632 37.9538 166.325 38.1727C167.018 38.3551 167.657 38.6104 168.24 38.9388C168.861 39.2671 169.408 39.6866 169.882 40.1973C170.393 40.6715 170.758 41.2734 170.976 42.003C171.122 42.4772 171.141 42.9332 171.031 43.371C170.958 43.8087 170.776 44.1735 170.484 44.4654C170.229 44.7572 169.882 44.9761 169.444 45.122C169.043 45.2679 168.605 45.3044 168.131 45.2314C167.584 45.122 167.073 44.9578 166.599 44.739C166.125 44.5201 165.65 44.283 165.176 44.0276C164.702 43.7723 164.209 43.5534 163.699 43.371C163.225 43.1886 162.714 43.0974 162.167 43.0974C161.328 43.0609 160.635 43.2068 160.087 43.5351C159.54 43.8635 159.157 44.2647 158.938 44.739C158.756 45.2132 158.774 45.7239 158.993 46.2711C159.248 46.8183 159.759 47.2925 160.525 47.6938C161.218 48.0586 161.984 48.3504 162.823 48.5693C163.662 48.7882 164.483 49.007 165.286 49.2259C166.125 49.4448 166.927 49.7001 167.693 49.992C168.496 50.2838 169.207 50.6851 169.827 51.1958C171.031 52.1807 171.761 53.3298 172.016 54.6431C172.308 55.9563 172.235 57.2513 171.797 58.5281C171.359 59.8049 170.593 60.9357 169.499 61.9207C168.441 62.9056 167.183 63.5622 165.723 63.8906C164.665 64.1094 163.516 64.2189 162.276 64.2189C161.072 64.2189 159.868 64.0912 158.665 63.8358C157.497 63.5805 156.366 63.1792 155.272 62.632C154.214 62.0848 153.32 61.3917 152.591 60.5527C152.08 59.969 151.807 59.3124 151.77 58.5828C151.77 57.8168 151.916 57.1601 152.208 56.613C152.536 56.0293 152.992 55.628 153.576 55.4091C154.159 55.1903 154.816 55.3179 155.546 55.7922C156.129 56.1934 156.822 56.5947 157.625 56.996C158.428 57.3608 159.23 57.6526 160.033 57.8715C160.835 58.0904 161.601 58.1998 162.331 58.1998C163.097 58.1998 163.753 58.0356 164.301 57.7073C165.103 57.1966 165.523 56.613 165.559 55.9563C165.596 55.2632 165.359 54.7343 164.848 54.3695ZM31.8464 90.2505C31.9193 91.4178 31.9558 92.5305 31.9558 93.5884C31.9558 94.6098 31.9193 95.7042 31.8464 96.8715C31.8464 97.3092 31.8464 97.8017 31.8464 98.3489C31.8464 98.8961 31.8099 99.425 31.7369 99.9357C31.664 100.446 31.5363 100.921 31.3539 101.358C31.1715 101.796 30.8979 102.143 30.5331 102.398C30.0954 102.69 29.6029 102.891 29.0557 103C28.5085 103.073 27.9978 103.036 27.5236 102.891C27.0494 102.745 26.6298 102.471 26.2651 102.07C25.9367 101.669 25.7543 101.103 25.7179 100.373C25.6084 98.6954 25.5537 97.0174 25.5537 95.3394C25.5537 94.5003 25.5355 93.6978 25.499 92.9317C25.499 92.1657 25.5172 91.0895 25.5537 89.7033C25.5537 89.0102 25.499 88.2259 25.3896 87.3504C25.2801 86.4384 25.0065 85.8 24.5688 85.4352C24.2405 85.1434 23.8757 84.9793 23.4744 84.9428C23.0731 84.8698 22.6719 84.9063 22.2706 85.0522C21.9058 85.1981 21.5775 85.4717 21.2856 85.873C20.9938 86.2378 20.7932 86.712 20.6837 87.2957C20.6837 87.7699 20.6655 88.2624 20.629 88.7731C20.629 89.2473 20.6473 89.7033 20.6837 90.1411C20.7202 91.3084 20.7385 92.421 20.7385 93.4789C20.7385 94.5003 20.7202 95.5947 20.6837 96.762C20.6473 97.2363 20.629 97.747 20.629 98.2942C20.6655 98.8414 20.6655 99.3886 20.629 99.9357C20.5925 100.446 20.4831 100.921 20.3007 101.358C20.1548 101.796 19.8812 102.143 19.4799 102.398C19.0422 102.69 18.5679 102.872 18.0572 102.945C17.583 102.982 17.127 102.909 16.6893 102.726C16.288 102.508 15.9232 102.179 15.5949 101.741C15.303 101.304 15.1389 100.72 15.1024 99.9905C15.0295 99.1514 14.9747 98.3854 14.9383 97.6923C14.9383 96.9627 14.9383 96.1966 14.9383 95.3941C14.9383 94.5551 14.9565 93.6978 14.993 92.8223C15.0294 91.9103 15.0112 91.0348 14.9383 90.1958C14.9383 89.9404 14.92 89.6486 14.8835 89.3203C14.8835 88.9555 14.8653 88.5907 14.8288 88.2259C14.8288 87.8611 14.7923 87.5146 14.7194 87.1862C14.6829 86.8215 14.6099 86.5296 14.5005 86.3107C14.2087 85.8 13.6797 85.4717 12.9137 85.3258C12.1841 85.1799 11.5639 85.2346 11.0532 85.49C10.5425 85.7453 10.1595 86.0736 9.90412 86.4749C9.64876 86.8762 9.46636 87.3139 9.35693 87.7882C9.24749 88.2624 9.19277 88.7731 9.19277 89.3203C9.19277 89.831 9.19277 90.3235 9.19277 90.7977C9.19277 93.1688 9.19277 95.2299 9.19277 96.9809C9.22925 98.6954 9.04685 100.082 8.64558 101.14C8.46319 101.687 8.08015 102.106 7.49649 102.398C6.9493 102.69 6.34739 102.836 5.69076 102.836C5.07062 102.836 4.48695 102.69 3.93976 102.398C3.39257 102.106 3.02778 101.65 2.84538 101.03C2.73594 100.629 2.62651 100.063 2.51707 99.3338C2.44411 98.5678 2.38939 97.7287 2.35291 96.8168C2.31643 95.9048 2.29819 94.9928 2.29819 94.0808C2.29819 93.1324 2.29819 92.2751 2.29819 91.509V83.6295C2.26171 82.7905 2.24347 81.8785 2.24347 80.8936C2.24347 79.9086 2.38939 79.0149 2.68122 78.2124C2.93658 77.5192 3.33785 77.0815 3.88504 76.8991C4.43223 76.6802 4.99766 76.589 5.58132 76.6255C6.23795 76.6255 6.74866 76.8079 7.11345 77.1727C7.51472 77.501 7.80656 77.9205 7.98896 78.4312C8.17135 78.9055 8.28079 79.4526 8.31727 80.0728C8.35375 80.6565 8.39023 81.2219 8.42671 81.7691C8.82798 80.8571 9.30221 80.1093 9.8494 79.5256C10.4331 78.9055 11.2538 78.5042 12.3117 78.3218C15.0112 77.8111 17.1635 78.5042 18.7686 80.4011C19.4982 79.6715 20.4284 79.0696 21.5592 78.5954C22.4347 78.2671 23.3285 78.1212 24.2405 78.1576C25.1524 78.1576 26.0097 78.3218 26.8122 78.6501C27.6513 78.9784 28.3991 79.4526 29.0557 80.0728C29.7488 80.6929 30.296 81.4408 30.6973 82.3163C31.2445 83.4836 31.5545 84.7786 31.6275 86.2013C31.7005 87.624 31.7734 88.9737 31.8464 90.2505ZM60.3818 78.5954C60.7102 79.1061 60.8561 79.6533 60.8196 80.237C60.8196 81.076 60.6737 81.8056 60.3818 82.4257C60.3089 82.6081 60.1994 82.8452 60.0535 83.1371C59.9441 83.4289 59.8164 83.739 59.6705 84.0673C59.5611 84.3956 59.4334 84.7057 59.2875 84.9975C59.1416 85.2893 59.0321 85.5082 58.9592 85.6541L58.8497 85.9277C58.339 87.0586 57.8465 88.1529 57.3723 89.2108C56.8981 90.2687 56.3691 91.3996 55.7855 92.6034C55.2018 93.7708 54.6364 94.9198 54.0892 96.0507C53.5785 97.1451 53.0678 98.2212 52.557 99.2791C52.4111 99.571 52.2835 99.8628 52.174 100.155C52.0646 100.41 51.9187 100.684 51.7363 100.975L49.1098 106.611C48.6355 107.56 48.1795 108.49 47.7418 109.402C47.3405 110.314 46.8845 111.226 46.3738 112.138C46.2644 112.32 46.1549 112.485 46.0455 112.631C45.9725 112.813 45.8996 112.995 45.8266 113.178C45.5713 113.615 45.1882 114.035 44.6775 114.436C44.2033 114.874 43.6926 115.111 43.1454 115.148C42.1605 115.221 41.3032 114.929 40.5736 114.272C40.1359 114.017 39.7893 113.652 39.534 113.178C39.388 112.849 39.3151 112.43 39.3151 111.919C39.3516 111.7 39.3698 111.481 39.3698 111.263C39.4063 111.08 39.4428 110.898 39.4792 110.715C39.5522 110.533 39.6069 110.351 39.6434 110.168C39.6799 109.986 39.7346 109.84 39.8076 109.73C39.917 109.439 40.0082 109.293 40.0811 109.293L44.0756 100.647C43.8932 100.246 43.7108 99.8445 43.5284 99.4433C43.346 99.0055 43.1819 98.6225 43.036 98.2942C42.5617 97.1633 42.051 95.9777 41.5038 94.7375C40.9931 93.4607 40.4642 92.2021 39.917 90.9618C39.3698 89.6851 38.8044 88.4448 38.2207 87.241C37.637 86.0372 37.0534 84.8881 36.4697 83.7937C36.2508 83.4289 36.0502 83.0459 35.8678 82.6446C35.6854 82.2068 35.5395 81.7873 35.43 81.386C35.3206 80.9483 35.2841 80.5105 35.3206 80.0728C35.3571 79.635 35.5212 79.1973 35.8131 78.7595C36.1049 78.2124 36.4879 77.8293 36.9622 77.6104C37.4364 77.3551 37.9289 77.2457 38.4396 77.2821C38.9868 77.2821 39.4975 77.3916 39.9717 77.6104C40.4459 77.8293 40.829 78.1212 41.1208 78.4859C41.741 79.1426 42.2334 79.8722 42.5982 80.6747C42.963 81.4772 43.3096 82.298 43.6379 83.1371C44.331 84.5962 45.0423 86.1283 45.7719 87.7334C46.5015 89.3385 47.2311 90.9071 47.9607 92.4393L50.806 86.4202C51.0979 85.8365 51.3532 85.2711 51.5721 84.7239C51.8275 84.1767 52.0828 83.6478 52.3382 83.1371C52.63 82.5169 52.9036 81.8785 53.159 81.2219C53.4508 80.5653 53.7791 79.9634 54.1439 79.4162C54.2169 79.2702 54.2898 79.1426 54.3628 79.0331C54.4357 78.9237 54.5087 78.796 54.5816 78.6501C54.91 78.2124 55.2018 77.8658 55.4571 77.6104C55.6395 77.4645 55.7855 77.3551 55.8949 77.2821C56.0408 77.1727 56.205 77.0997 56.3874 77.0633C56.6427 76.9903 56.8798 76.9538 57.0987 76.9538C57.3541 76.9173 57.5912 76.9173 57.8101 76.9538C58.1749 77.0633 58.6126 77.2274 59.1233 77.4463C59.6705 77.6652 60.09 78.0482 60.3818 78.5954Z" fill="#3D408A"/>
<path d="M106.613 101.404C108.263 102.485 109.657 103.766 110.795 105.245C111.99 106.667 112.928 108.431 113.611 110.537C114.351 112.869 114.721 115.231 114.721 117.621C114.778 119.953 114.351 122.144 113.441 124.192C112.587 126.184 111.193 127.948 109.258 129.484C107.381 130.963 104.906 132.016 101.833 132.642C100.183 133.04 98.2485 133.353 96.0294 133.581C93.8103 133.808 91.8189 133.922 90.055 133.922C87.8359 133.979 85.5315 133.979 83.1417 133.922C80.8089 133.922 78.5329 133.695 76.3138 133.239C75.3466 132.955 74.6353 132.471 74.1801 131.788C73.7818 131.049 73.4973 130.224 73.3266 129.313C73.099 128.801 72.9852 128.289 72.9852 127.777V79.299C72.9852 77.7058 73.2982 76.4825 73.9241 75.629C74.6069 74.7186 75.4888 74.0642 76.5699 73.6659C77.651 73.2108 78.8743 72.9547 80.2399 72.8978C81.6055 72.784 83.0279 72.7271 84.5073 72.7271C85.6453 72.7271 86.7833 72.7271 87.9213 72.7271C89.1161 72.6702 90.311 72.6702 91.5059 72.7271C93.3836 72.784 95.3182 72.9547 97.3096 73.2392C99.358 73.4668 101.293 73.922 103.113 74.6048C103.967 74.8893 104.877 75.2876 105.844 75.7997C106.812 76.2549 107.58 76.8238 108.149 77.5066C109.97 79.1567 111.307 81.0913 112.16 83.3103C113.071 85.4725 113.469 87.6916 113.355 89.9675C113.241 92.1866 112.615 94.3203 111.478 96.3687C110.396 98.4171 108.775 100.096 106.613 101.404ZM91.6766 124.022C93.4405 123.908 95.2328 123.709 97.0536 123.424C98.8743 123.14 100.126 122.599 100.809 121.803C101.549 120.892 102.061 119.84 102.345 118.645C102.687 117.393 102.772 116.141 102.601 114.889C102.487 113.581 102.118 112.357 101.492 111.219C100.923 110.024 100.155 109.086 99.1873 108.403C97.8786 107.379 96.3708 106.724 94.6638 106.44C92.9568 106.098 91.2783 105.928 89.6282 105.928C88.8316 105.928 88.092 105.956 87.4092 106.013C86.7833 106.013 86.2143 106.098 85.7022 106.269C85.247 106.383 84.9056 106.639 84.678 107.037C84.4504 107.436 84.3366 108.033 84.3366 108.83C84.4504 110.309 84.4504 111.788 84.3366 113.268C84.2228 114.747 84.1659 116.17 84.1659 117.535C84.1659 118.332 84.1375 119.214 84.0806 120.181C84.0806 121.091 84.3935 121.86 85.0194 122.485C85.6453 123.111 86.5557 123.538 87.7506 123.766C88.9454 123.993 90.2541 124.079 91.6766 124.022ZM93.3836 83.0543C91.6197 82.9974 90.1403 82.969 88.9454 82.969C87.8075 82.9121 86.8971 82.9974 86.2143 83.225C85.5884 83.3957 85.1332 83.8224 84.8487 84.5052C84.6211 85.1311 84.5358 86.0984 84.5927 87.4071C84.5927 88.4882 84.5642 89.5693 84.5073 90.6503C84.5073 91.6745 84.5073 92.6987 84.5073 93.7229C84.5073 94.8609 84.8772 95.7144 85.6168 96.2834C86.3565 96.7954 87.2669 97.1084 88.348 97.2222C89.486 97.336 90.6524 97.336 91.8473 97.2222C93.0991 97.1084 94.1802 96.9661 95.0906 96.7954C97.1389 96.454 98.7036 95.7713 99.7847 94.7471C100.923 93.666 101.577 92.1013 101.748 90.0529C101.975 87.4924 101.293 85.7286 99.6994 84.7613C98.1631 83.7371 96.0578 83.1681 93.3836 83.0543ZM167.094 77.1652C167.436 79.8964 167.635 83.0828 167.692 86.7243C167.749 90.3089 167.692 93.9505 167.521 97.6489C167.407 101.29 167.151 104.761 166.753 108.061C166.355 111.305 165.871 113.922 165.302 115.914C164.904 117.108 164.42 118.36 163.851 119.669C163.339 120.921 162.77 122.059 162.144 123.083C161.234 124.619 160.124 125.985 158.815 127.18C157.507 128.318 156.056 129.313 154.463 130.167C152.926 130.963 151.276 131.589 149.512 132.044C147.805 132.5 146.098 132.756 144.391 132.813C141.376 132.926 138.502 132.5 135.771 131.532C133.097 130.508 130.622 128.915 128.346 126.753C126.639 125.103 125.273 123.339 124.249 121.461C123.225 119.584 122.428 117.621 121.859 115.572C121.29 113.467 120.921 111.305 120.75 109.086C120.636 106.867 120.579 104.591 120.579 102.258C120.579 101.177 120.551 99.8395 120.494 98.2464C120.494 96.5963 120.494 94.9178 120.494 93.2108C120.494 91.4469 120.494 89.7399 120.494 88.0899C120.494 86.4398 120.522 85.0458 120.579 83.9078C120.579 83.1681 120.579 82.3715 120.579 81.518C120.579 80.6076 120.608 79.7257 120.664 78.8722C120.778 77.9618 120.949 77.1083 121.177 76.3118C121.404 75.4583 121.746 74.6901 122.201 74.0073C122.713 73.2676 123.424 72.7271 124.334 72.3857C125.245 72.0443 126.184 71.8736 127.151 71.8736C128.175 71.8736 129.142 72.0728 130.053 72.4711C130.963 72.8694 131.703 73.4383 132.272 74.178C132.556 74.6332 132.756 75.0884 132.869 75.5436C132.983 75.9988 133.069 76.5109 133.125 77.0799C133.239 78.9576 133.296 81.0913 133.296 83.481C133.353 85.8708 133.353 88.2037 133.296 90.4796C133.296 92.6987 133.268 94.7471 133.211 96.6247C133.154 98.5024 133.125 99.8964 133.125 100.807C133.125 104.221 133.296 107.322 133.637 110.11C133.979 112.841 134.775 115.117 136.027 116.938C137.165 118.588 138.502 119.64 140.039 120.096C141.575 120.551 143.111 120.693 144.647 120.522C146.07 120.352 147.492 119.84 148.915 118.986C150.394 118.076 151.561 116.767 152.414 115.06C152.756 114.434 153.04 113.723 153.268 112.926C153.495 112.13 153.666 111.39 153.78 110.707C154.007 108.545 154.207 106.042 154.377 103.197C154.548 100.295 154.69 97.336 154.804 94.3203C154.918 91.3047 154.975 88.3459 154.975 85.4441C154.975 82.5422 154.946 79.9248 154.889 77.592C155.003 76.5678 155.316 75.629 155.828 74.7755C156.283 74.0358 156.938 73.3814 157.791 72.8125C158.645 72.2435 159.811 71.959 161.29 71.959C162.485 72.0159 163.453 72.3288 164.192 72.8978C164.932 73.4099 165.529 73.9789 165.985 74.6048C166.497 75.3445 166.867 76.198 167.094 77.1652ZM218.798 108.061C219.082 108.858 219.281 109.768 219.395 110.793C219.566 111.76 219.651 112.756 219.651 113.78C219.651 114.804 219.566 115.828 219.395 116.852C219.281 117.82 219.11 118.673 218.883 119.413C217.972 122.599 216.152 125.273 213.421 127.436C210.689 129.541 207.56 131.077 204.032 132.044C200.561 133.012 196.948 133.353 193.193 133.069C189.494 132.784 186.194 131.845 183.292 130.252C181.472 129.228 179.907 127.976 178.598 126.497C177.29 125.017 176.18 123.367 175.27 121.547C174.928 120.921 174.701 120.209 174.587 119.413C174.53 118.559 174.615 117.763 174.843 117.023C175.071 116.227 175.44 115.544 175.952 114.975C176.465 114.349 177.176 113.922 178.086 113.694C178.655 113.581 179.281 113.524 179.964 113.524C180.704 113.524 181.415 113.638 182.098 113.865C182.78 114.036 183.406 114.349 183.975 114.804C184.544 115.202 184.999 115.771 185.341 116.511C185.967 117.706 186.849 118.815 187.987 119.84C189.182 120.807 190.433 121.603 191.742 122.229C193.62 122.855 195.497 123.111 197.375 122.997C199.31 122.884 201.045 122.457 202.581 121.717C204.174 120.978 205.455 119.982 206.422 118.73C207.389 117.421 207.873 115.942 207.873 114.292C207.873 112.926 207.674 111.817 207.275 110.963C206.877 110.053 206.308 109.313 205.568 108.744C204.886 108.118 204.032 107.606 203.008 107.208C202.041 106.81 200.96 106.468 199.765 106.184C198.399 105.899 197.005 105.7 195.583 105.586C194.217 105.473 192.823 105.33 191.401 105.16C189.978 104.989 188.584 104.761 187.218 104.477C185.853 104.192 184.516 103.766 183.207 103.197C180.59 102.116 178.598 100.465 177.233 98.2464C175.867 96.0273 175.042 93.6375 174.758 91.0771C174.53 88.5166 174.843 85.9846 175.696 83.481C176.55 80.9206 177.915 78.73 179.793 76.9092C181.614 75.2591 183.776 74.0927 186.28 73.4099C188.84 72.6702 191.657 72.2435 194.729 72.1297C196.436 72.0728 198.143 72.1297 199.85 72.3004C201.614 72.4711 203.292 72.7556 204.886 73.1538C206.536 73.5521 208.044 74.0642 209.409 74.6901C210.832 75.316 212.055 76.0557 213.079 76.9092C213.819 77.4782 214.559 78.2463 215.298 79.2136C216.038 80.124 216.607 81.1197 217.005 82.2008C217.403 83.225 217.517 84.2207 217.347 85.188C217.233 86.1553 216.635 86.9803 215.554 87.6631C214.644 88.2321 213.762 88.4882 212.908 88.4313C212.112 88.3175 211.344 88.0614 210.604 87.6631C209.864 87.2079 209.153 86.6958 208.47 86.1269C207.788 85.5579 207.162 85.0458 206.593 84.5906C205.056 83.4526 203.15 82.6845 200.874 82.2862C198.598 81.8879 196.465 81.8025 194.473 82.0301C193.221 82.2008 192.055 82.4853 190.974 82.8836C189.893 83.2819 188.954 83.8224 188.157 84.5052C187.418 85.188 186.82 86.0415 186.365 87.0657C185.967 88.033 185.824 89.1425 185.938 90.3943C185.995 91.3047 186.251 92.0728 186.706 92.6987C187.218 93.3246 187.816 93.8367 188.499 94.235C189.238 94.6333 190.035 94.9462 190.888 95.1738C191.742 95.4014 192.595 95.5721 193.449 95.6859C196.009 96.0273 198.57 96.2834 201.13 96.454C203.691 96.6247 206.194 97.1937 208.641 98.161C211.145 99.1283 213.278 100.437 215.042 102.087C216.806 103.737 218.058 105.729 218.798 108.061Z" fill="#3D408A"/>
<path d="M167.942 33.5138C167.024 32.5618 166.173 31.5312 165.39 30.4221C164.648 29.2841 164.085 28.0505 163.7 26.7214C163.166 25.0057 163.035 23.2513 163.308 21.4582C163.581 19.665 164.157 17.9963 165.036 16.452C165.969 14.8086 167.067 13.356 168.33 12.0944C169.606 10.7626 171 9.68583 172.513 8.86396C174.067 8.01308 175.704 7.4111 177.424 7.05801C179.157 6.63484 180.982 6.51614 182.898 6.70192C184.954 6.91184 186.813 7.53865 188.473 8.58235C190.146 9.55597 191.553 10.8087 192.697 12.3407C193.881 13.8436 194.798 15.5351 195.449 17.4151C196.111 19.225 196.475 21.0917 196.541 23.0153C196.541 23.0153 196.549 23.0709 196.566 23.182C196.535 24.6199 196.343 26.0481 195.991 27.4667C195.609 28.8442 195.332 30.2399 195.161 31.6536C194.925 33.2365 195.072 34.5789 195.604 35.6807C196.107 36.7415 196.697 37.9256 197.373 39.2328C198.062 40.47 198.465 41.6939 198.581 42.9046C198.709 44.0452 198.122 45.0446 196.82 45.9027C195.928 46.4707 195.082 46.6678 194.283 46.4939C193.495 46.25 192.752 45.8513 192.053 45.2981C191.367 44.6747 190.768 43.9583 190.258 43.1488C189.719 42.2982 189.273 41.5359 188.92 40.8617C188.152 39.25 187.646 37.5754 187.405 35.8379C187.134 34.0593 187.064 32.2614 187.197 30.4441C187.296 29.4509 187.438 28.5193 187.624 27.6493C187.781 26.7382 187.883 25.8356 187.928 24.9415C187.974 24.0473 187.929 23.1556 187.794 22.2663C187.658 21.377 187.348 20.4576 186.862 19.5079C186.434 18.6405 185.821 17.9035 185.024 17.2971C184.197 16.6496 183.32 16.1917 182.392 15.9237C181.435 15.6145 180.462 15.5011 179.474 15.5834C178.456 15.6246 177.522 15.9147 176.672 16.4538C175.903 16.9348 175.196 17.5886 174.548 18.4152C173.872 19.2007 173.358 20.0864 173.008 21.0724C172.629 22.0174 172.445 22.978 172.457 23.9543C172.511 24.9016 172.848 25.7715 173.469 26.564C173.858 27.0279 174.303 27.4834 174.803 27.9304C175.316 28.3073 175.766 28.7277 176.156 29.1916C176.557 29.5855 176.855 30.0518 177.051 30.5907C177.288 31.1006 177.326 31.7204 177.164 32.4502C176.917 33.6706 176.425 34.5419 175.685 35.064C174.917 35.545 174.065 35.7771 173.13 35.7604C172.195 35.7436 171.254 35.5456 170.31 35.1663C169.377 34.717 168.588 34.1661 167.942 33.5138ZM207.398 51.7298C208.239 52.921 208.542 54.3081 208.305 55.891C208.08 57.4038 207.393 58.5663 206.243 59.3784C205.134 60.1616 203.829 60.4059 202.328 60.1113C200.77 59.7345 199.584 58.9711 198.772 57.8209C197.873 56.5475 197.55 55.175 197.803 53.7032C197.999 52.1493 198.651 50.9808 199.76 50.1977C200.91 49.3855 202.25 49.1473 203.78 49.4829C205.322 49.7485 206.528 50.4975 207.398 51.7298Z" fill="#3D408A"/>
</svg>
