<svg width="109" height="68" viewBox="0 0 109 68" fill="none" xmlns="http://www.w3.org/2000/svg">
<path d="M20.052 14.0673C20.1229 14.4042 20.1229 14.7588 20.052 15.1311C20.0165 15.3084 19.981 15.4857 19.9456 15.663C19.9279 15.8226 19.9013 15.991 19.8658 16.1683L19.8392 16.2747C19.591 17.3739 19.3073 18.5352 18.9882 19.7585C18.6868 20.9641 18.412 22.1076 18.1638 23.1891C17.951 24.0756 17.7294 25.0507 17.4989 26.1145C17.2684 27.1782 17.0291 28.1534 16.7809 29.0398C16.6922 29.3412 16.5947 29.6426 16.4884 29.944C16.3997 30.2454 16.2845 30.5468 16.1426 30.8482C16.0185 31.1142 15.8678 31.3535 15.6905 31.5663C15.531 31.7613 15.3448 31.9031 15.1321 31.9918C14.9193 32.0982 14.6888 32.1336 14.4406 32.0982C14.2101 32.0804 13.953 31.974 13.6694 31.779C13.2439 31.4776 12.9247 31.061 12.712 30.5291C12.517 29.9972 12.3131 29.5097 12.1003 29.0664C12.0294 28.9423 11.923 28.6675 11.7812 28.242C11.6394 27.8165 11.4887 27.3555 11.3291 26.8591C11.1695 26.345 11.01 25.8574 10.8504 25.3964C10.7086 24.9177 10.5845 24.5632 10.4781 24.3327C10.3185 24.7227 10.159 25.166 9.99939 25.6624C9.83982 26.1588 9.68912 26.6464 9.54729 27.1251C9.40545 27.6037 9.27248 28.0381 9.14838 28.4282C9.042 28.8005 8.96222 29.0753 8.90903 29.2526C8.76719 29.6072 8.60763 29.9972 8.43033 30.4227C8.27077 30.8482 8.06688 31.2117 7.81867 31.5131C7.58819 31.8145 7.30452 32.0095 6.96766 32.0982C6.6308 32.2045 6.23189 32.107 5.77092 31.8056C5.41634 31.5929 5.16812 31.2915 5.02629 30.9014C4.93764 30.6532 4.84899 30.4139 4.76035 30.1834C4.6717 29.9529 4.60078 29.7135 4.54759 29.4653L4.01571 27.4708L2.92535 23.1891C2.78352 22.6395 2.64168 22.081 2.49985 21.5137C2.37574 20.9286 2.22504 20.3258 2.04775 19.7053C1.9591 19.4039 1.87932 19.1114 1.8084 18.8277C1.75521 18.5263 1.69316 18.2072 1.62224 17.8703C1.56905 17.5157 1.49814 17.1168 1.40949 16.6736C1.33857 16.2303 1.24992 15.7162 1.14355 15.1311C1.10809 14.9361 1.08149 14.7588 1.06376 14.5992C1.06376 14.4219 1.08149 14.2446 1.11695 14.0673C1.15241 13.8014 1.27652 13.5709 1.48927 13.3759C1.57792 13.2872 1.68429 13.2163 1.8084 13.1631C1.93251 13.11 2.06548 13.0656 2.20731 13.0302C2.42006 12.9593 2.64168 12.9238 2.87216 12.9238C3.08492 12.9238 3.30654 12.9947 3.53702 13.1366C3.69658 13.2252 3.82069 13.3404 3.90934 13.4823L4.22846 14.0407C4.26392 14.1649 4.29938 14.2801 4.33484 14.3865C4.3703 14.4751 4.40576 14.5726 4.44122 14.679C4.47668 14.8031 4.50327 14.9184 4.521 15.0247C4.53873 15.1134 4.55646 15.202 4.57419 15.2907C4.73375 16.2126 4.92878 17.1079 5.15926 17.9767C5.38974 18.8454 5.60249 19.6787 5.79752 20.4765C5.86844 20.7957 5.95708 21.1946 6.06346 21.6733C6.16984 22.1342 6.27621 22.6218 6.38259 23.1359C6.48896 23.6324 6.59534 24.1111 6.70172 24.572C6.80809 25.033 6.91447 25.3964 7.02085 25.6624C7.25133 24.8646 7.48181 24.0667 7.71229 23.2689C7.96051 22.4711 8.22645 21.6644 8.51012 20.8488C8.65195 20.4233 8.79379 20.0422 8.93562 19.7053C9.09519 19.3507 9.27248 19.0582 9.46751 18.8277C9.66253 18.5972 9.88415 18.4465 10.1324 18.3756C10.3806 18.3047 10.6731 18.3313 11.01 18.4554C11.3114 18.5795 11.5773 18.8454 11.8078 19.2532C12.0383 19.661 12.2422 20.0776 12.4195 20.5031C12.579 20.8932 12.7297 21.3098 12.8716 21.753C13.0311 22.1785 13.1818 22.6041 13.3237 23.0296C13.4832 23.4373 13.6339 23.8274 13.7758 24.1997C13.9176 24.572 14.0594 24.8911 14.2013 25.1571C14.2544 24.9621 14.3165 24.7139 14.3874 24.4125C14.4583 24.1111 14.5293 23.7919 14.6002 23.4551C14.6888 23.1005 14.7686 22.7548 14.8395 22.4179C14.9104 22.081 14.9814 21.7708 15.0523 21.4871C15.2828 20.5297 15.5221 19.5723 15.7703 18.6149C16.0185 17.6398 16.2579 16.6824 16.4884 15.7428L16.6213 15.2907C16.6568 15.202 16.6745 15.1134 16.6745 15.0247C16.6922 14.9184 16.7188 14.8031 16.7543 14.679C16.7898 14.5726 16.8252 14.4751 16.8607 14.3865C16.8961 14.2801 16.9316 14.1649 16.967 14.0407C17.0025 13.9521 17.038 13.8635 17.0734 13.7748C17.1266 13.6684 17.1887 13.5709 17.2596 13.4823C17.3128 13.3936 17.3748 13.3227 17.4457 13.2695C17.5167 13.2163 17.5876 13.172 17.6585 13.1366C17.9067 12.9947 18.1195 12.9238 18.2968 12.9238C18.5272 12.9238 18.7489 12.9593 18.9616 13.0302C19.2453 13.0834 19.5024 13.1986 19.7328 13.3759C19.9101 13.5532 20.0165 13.7837 20.052 14.0673ZM30.7661 26.5932C30.7838 26.9478 30.7927 27.3201 30.7927 27.7101C30.7927 28.0824 30.7838 28.4282 30.7661 28.7473C30.7483 29.226 30.7217 29.6692 30.6863 30.077C30.6508 30.467 30.5799 30.8039 30.4735 31.0876C30.3672 31.3535 30.1987 31.5574 29.9682 31.6992C29.7555 31.8233 29.4541 31.8588 29.064 31.8056C28.6563 31.7524 28.3637 31.5574 28.1864 31.2205C28.0091 30.8837 27.885 30.5025 27.8141 30.077C27.7609 29.6338 27.7432 29.1905 27.7609 28.7473C27.7787 28.3041 27.7787 27.9583 27.7609 27.7101C27.7432 27.3201 27.7255 26.8768 27.7077 26.3804C27.7077 25.8663 27.6546 25.3876 27.5482 24.9443C27.4595 24.4834 27.3 24.0933 27.0695 23.7742C26.839 23.4551 26.4933 23.2866 26.0323 23.2689C25.4472 23.2334 24.9951 23.2778 24.676 23.4019C24.3746 23.526 24.153 23.7121 24.0112 23.9604C23.8693 24.1908 23.7807 24.4745 23.7452 24.8114C23.7275 25.1482 23.692 25.5117 23.6388 25.9017L23.6123 26.9389V28.8803C23.6123 29.1994 23.6034 29.5363 23.5857 29.8908C23.5857 30.2277 23.5325 30.538 23.4261 30.8216C23.3197 31.1053 23.1513 31.3447 22.9208 31.5397C22.7081 31.7347 22.3889 31.8322 21.9634 31.8322C21.4315 31.8322 21.0326 31.6638 20.7667 31.3269C20.5185 30.9723 20.3944 30.538 20.3944 30.0238V14.7322C20.3944 14.6258 20.3944 14.5283 20.3944 14.4397C20.4121 14.3333 20.4298 14.2269 20.4476 14.1205C20.483 14.0142 20.5096 13.9166 20.5273 13.828C20.5451 13.7216 20.5717 13.6241 20.6071 13.5355C20.6603 13.3582 20.749 13.2252 20.8731 13.1366C20.9617 13.0479 21.0504 12.977 21.139 12.9238C21.2276 12.8706 21.3252 12.8351 21.4315 12.8174C21.5202 12.7997 21.6177 12.7908 21.7241 12.7908C21.8304 12.7731 21.9368 12.7642 22.0432 12.7642C22.3091 12.7642 22.5662 12.844 22.8144 13.0036C22.9208 13.0745 23.0183 13.1543 23.107 13.2429C23.1956 13.3138 23.2665 13.4202 23.3197 13.5621C23.4616 13.8989 23.5325 14.218 23.5325 14.5194C23.5502 14.6081 23.5591 14.7411 23.5591 14.9184C23.5768 15.0779 23.5857 15.2463 23.5857 15.4236C23.5857 15.6009 23.5857 15.7782 23.5857 15.9555C23.6034 16.1151 23.6123 16.2392 23.6123 16.3278V16.4608C23.63 17.0282 23.6388 17.6044 23.6388 18.1894C23.6388 18.7745 23.6388 19.3684 23.6388 19.9712V20.4233C24.3835 20.1751 25.1636 20.0599 25.9791 20.0776C26.7947 20.0776 27.5216 20.2372 28.1598 20.5563C28.8158 20.8932 29.3123 21.2743 29.6491 21.6999C30.0037 22.1254 30.2608 22.5952 30.4203 23.1093C30.5799 23.6235 30.6686 24.1731 30.6863 24.7582C30.7217 25.3432 30.7483 25.9549 30.7661 26.5932ZM40.2523 28.1888C40.465 28.1356 40.6778 28.1002 40.8905 28.0824C41.121 28.0647 41.3249 28.0913 41.5022 28.1622C41.6972 28.2331 41.8568 28.3572 41.9809 28.5345C42.105 28.6941 42.1671 28.9246 42.1671 29.226C42.1671 29.4387 42.1139 29.6426 42.0075 29.8377C41.9011 30.0327 41.7681 30.21 41.6086 30.3695C41.449 30.5291 41.2717 30.6709 41.0767 30.795C40.8817 30.9014 40.6955 30.9901 40.5182 31.061C40.0041 31.2915 39.4101 31.4688 38.7364 31.5929C38.0804 31.717 37.3978 31.7613 36.6887 31.7258C35.7313 31.6904 34.8093 31.5042 33.9229 31.1674C33.0541 30.8128 32.3716 30.2366 31.8751 29.4387C31.4142 28.6586 31.1394 27.7899 31.0507 26.8325C30.9621 25.8751 31.0064 24.9709 31.1837 24.1199C31.3787 23.0916 31.7067 22.2583 32.1677 21.6201C32.6464 20.9641 33.2137 20.4411 33.8697 20.051C34.6675 19.5901 35.5628 19.3507 36.5557 19.333C37.5485 19.3152 38.4971 19.5103 39.4013 19.918C40.0041 20.184 40.5448 20.5474 41.0235 21.0084C41.5022 21.4516 41.8657 21.9924 42.1139 22.6306C42.1848 22.7902 42.238 22.9852 42.2734 23.2157C42.3266 23.4462 42.3621 23.6944 42.3798 23.9604C42.3975 24.2086 42.3975 24.4568 42.3798 24.705C42.3621 24.9532 42.3178 25.1748 42.2468 25.3698C42.1405 25.689 42.0075 25.9372 41.8479 26.1145C41.6884 26.2918 41.4845 26.4247 41.2363 26.5134C40.988 26.602 40.6866 26.6641 40.3321 26.6995C39.9952 26.7173 39.5874 26.735 39.1087 26.7527C38.6832 26.7705 38.2843 26.7793 37.912 26.7793C37.5397 26.7793 37.1585 26.7793 36.7684 26.7793C36.3784 26.7616 35.9706 26.7527 35.5451 26.7527C35.1373 26.735 34.6764 26.7173 34.1622 26.6995C34.109 27.0541 34.1534 27.3644 34.2952 27.6303C34.4548 27.8786 34.6675 28.0913 34.9334 28.2686C35.1994 28.4282 35.5008 28.5523 35.8377 28.6409C36.1745 28.7296 36.5025 28.7828 36.8216 28.8005C37.4244 28.8359 38.0006 28.7916 38.5503 28.6675C39.0999 28.5257 39.6672 28.3661 40.2523 28.1888ZM39.1087 23.0296C38.7719 22.6395 38.4173 22.3558 38.045 22.1786C37.7613 22.0544 37.4599 22.0013 37.1408 22.019C36.8394 22.019 36.5468 22.0633 36.2632 22.152C35.749 22.2761 35.3146 22.542 34.96 22.9498C34.9246 22.9852 34.8625 23.0739 34.7739 23.2157C34.6852 23.3398 34.5966 23.4728 34.5079 23.6146C34.437 23.7565 34.3838 23.8894 34.3484 24.0135C34.3129 24.1377 34.3306 24.1997 34.4016 24.1997H39.614C39.5963 23.9515 39.552 23.7476 39.481 23.588C39.4101 23.4107 39.286 23.2246 39.1087 23.0296ZM42.6946 22.4179C42.6946 22.2051 42.6946 21.9658 42.6946 21.6999C42.6946 21.4162 42.7034 21.1325 42.7212 20.8488C42.7389 20.5474 42.7655 20.2638 42.8009 19.9978C42.8541 19.7142 42.9251 19.4659 43.0137 19.2532C43.1555 18.9341 43.3772 18.7213 43.6786 18.6149C43.98 18.4908 44.3079 18.4376 44.6625 18.4554C45.0349 18.4554 45.3274 18.5174 45.5401 18.6415C45.7529 18.7656 45.9125 18.9341 46.0188 19.1468C46.1252 19.3418 46.1873 19.5723 46.205 19.8383C46.2405 20.0865 46.2582 20.3524 46.2582 20.6361C46.4177 20.3524 46.6305 20.1219 46.8964 19.9446C47.1801 19.7673 47.4638 19.6255 47.7475 19.5191C48.0311 19.4128 48.2882 19.3418 48.5187 19.3064C48.7492 19.2532 48.8821 19.2266 48.9176 19.2266C49.3608 19.1911 49.7597 19.1823 50.1143 19.2C50.4866 19.2177 50.8944 19.2975 51.3377 19.4394C51.6213 19.5457 51.9139 19.6964 52.2153 19.8915C52.5167 20.0687 52.7826 20.2815 53.0131 20.5297C53.2436 20.7779 53.3943 21.0527 53.4652 21.3541C53.5538 21.6378 53.5184 21.9392 53.3588 22.2583C53.1106 22.7016 52.8358 22.9232 52.5344 22.9232C52.233 22.9055 51.905 22.8523 51.5504 22.7636C51.3554 22.7282 51.1249 22.6484 50.859 22.5243C50.593 22.4002 50.3625 22.3204 50.1675 22.2849C49.5647 22.1963 49.0328 22.2406 48.5719 22.4179C48.1109 22.5952 47.712 22.8079 47.3751 23.0562C46.9851 23.3576 46.6482 23.7033 46.3646 24.0933V27.9229C46.3646 28.4016 46.3557 28.898 46.338 29.4121C46.338 29.9263 46.267 30.3961 46.1252 30.8216C46.0011 31.2294 45.7795 31.5663 45.4604 31.8322C45.159 32.0804 44.7157 32.1868 44.1307 32.1513C43.8115 32.1336 43.5279 31.9829 43.2796 31.6992C43.0314 31.3978 42.8807 31.1053 42.8275 30.8216C42.7921 30.5557 42.7655 30.2366 42.7478 29.8642C42.73 29.4919 42.7123 29.1019 42.6946 28.6941C42.6946 28.2863 42.6946 27.8786 42.6946 27.4708C42.6946 27.0453 42.6946 26.6552 42.6946 26.3006V22.4179ZM61.4091 28.1888C61.6219 28.1356 61.8346 28.1002 62.0474 28.0824C62.2779 28.0647 62.4818 28.0913 62.6591 28.1622C62.8541 28.2331 63.0137 28.3572 63.1378 28.5345C63.2619 28.6941 63.3239 28.9246 63.3239 29.226C63.3239 29.4387 63.2707 29.6426 63.1644 29.8377C63.058 30.0327 62.925 30.21 62.7654 30.3695C62.6059 30.5291 62.4286 30.6709 62.2336 30.795C62.0385 30.9014 61.8524 30.9901 61.6751 31.061C61.1609 31.2915 60.567 31.4688 59.8933 31.5929C59.2373 31.717 58.5547 31.7613 57.8455 31.7258C56.8881 31.6904 55.9662 31.5042 55.0797 31.1674C54.211 30.8128 53.5284 30.2366 53.032 29.4387C52.571 28.6586 52.2962 27.7899 52.2076 26.8325C52.1189 25.8751 52.1633 24.9709 52.3405 24.1199C52.5356 23.0916 52.8636 22.2583 53.3245 21.6201C53.8032 20.9641 54.3706 20.4411 55.0266 20.051C55.8244 19.5901 56.7197 19.3507 57.7126 19.333C58.7054 19.3152 59.6539 19.5103 60.5581 19.918C61.1609 20.184 61.7017 20.5474 62.1804 21.0084C62.6591 21.4516 63.0225 21.9924 63.2707 22.6306C63.3416 22.7902 63.3948 22.9852 63.4303 23.2157C63.4835 23.4462 63.5189 23.6944 63.5367 23.9604C63.5544 24.2086 63.5544 24.4568 63.5367 24.705C63.5189 24.9532 63.4746 25.1748 63.4037 25.3698C63.2973 25.689 63.1644 25.9372 63.0048 26.1145C62.8452 26.2918 62.6413 26.4247 62.3931 26.5134C62.1449 26.602 61.8435 26.6641 61.4889 26.6995C61.1521 26.7173 60.7443 26.735 60.2656 26.7527C59.8401 26.7705 59.4412 26.7793 59.0689 26.7793C58.6965 26.7793 58.3154 26.7793 57.9253 26.7793C57.5353 26.7616 57.1275 26.7527 56.702 26.7527C56.2942 26.735 55.8332 26.7173 55.3191 26.6995C55.2659 27.0541 55.3102 27.3644 55.4521 27.6303C55.6116 27.8786 55.8244 28.0913 56.0903 28.2686C56.3563 28.4282 56.6577 28.5523 56.9945 28.6409C57.3314 28.7296 57.6594 28.7828 57.9785 28.8005C58.5813 28.8359 59.1575 28.7916 59.7071 28.6675C60.2567 28.5257 60.8241 28.3661 61.4091 28.1888ZM60.2656 23.0296C59.9287 22.6395 59.5741 22.3558 59.2018 22.1786C58.9182 22.0544 58.6168 22.0013 58.2976 22.019C57.9962 22.019 57.7037 22.0633 57.42 22.152C56.9059 22.2761 56.4715 22.542 56.1169 22.9498C56.0815 22.9852 56.0194 23.0739 55.9308 23.2157C55.8421 23.3398 55.7535 23.4728 55.6648 23.6146C55.5939 23.7565 55.5407 23.8894 55.5052 24.0135C55.4698 24.1377 55.4875 24.1997 55.5584 24.1997H60.7709C60.7532 23.9515 60.7088 23.7476 60.6379 23.588C60.567 23.4107 60.4429 23.2246 60.2656 23.0296ZM72.2223 21.753C72.2223 22.2495 72.2223 22.8079 72.2223 23.4285C72.2401 24.049 72.2489 24.6961 72.2489 25.3698C72.2489 26.0258 72.2489 26.6818 72.2489 27.3378C72.2489 27.9761 72.2401 28.57 72.2223 29.1196C72.2046 29.3856 72.178 29.6781 72.1426 29.9972C72.1071 30.2986 72.0362 30.5823 71.9298 30.8482C71.8234 31.1142 71.655 31.3358 71.4245 31.5131C71.2118 31.6726 70.9192 31.7436 70.5469 31.7258C69.9973 31.6904 69.5984 31.451 69.3502 31.0078C69.1197 30.5646 68.9867 29.944 68.9513 29.1462C68.9513 28.7384 68.9424 28.2686 68.9247 27.7367C68.9247 27.2048 68.9158 26.6641 68.8981 26.1145C68.8981 25.5649 68.8981 25.033 68.8981 24.5188C68.8981 23.9869 68.8981 23.5083 68.8981 23.0827C68.8981 22.8345 68.8892 22.5331 68.8715 22.1786C68.8715 21.824 68.8804 21.4605 68.8981 21.0882C68.9158 20.7159 68.9601 20.3613 69.0311 20.0244C69.102 19.6698 69.2172 19.3773 69.3768 19.1468C69.5009 19.005 69.6782 18.8986 69.9087 18.8277C70.1391 18.739 70.3785 18.6947 70.6267 18.6947C70.8926 18.6947 71.1409 18.739 71.3713 18.8277C71.6195 18.9163 71.7968 19.0404 71.9032 19.2C71.9741 19.3064 72.0273 19.4571 72.0628 19.6521C72.0982 19.8471 72.1248 20.0687 72.1426 20.317C72.178 20.5474 72.1958 20.7957 72.1958 21.0616C72.2135 21.3098 72.2223 21.5403 72.2223 21.753ZM71.2118 16.381C70.6622 16.5229 70.2012 16.4697 69.8289 16.2215C69.4743 15.9555 69.2527 15.5655 69.164 15.0513C69.0931 14.679 69.1197 14.351 69.2438 14.0673C69.3679 13.7837 69.5541 13.5709 69.8023 13.4291C70.0505 13.2695 70.3342 13.1986 70.6533 13.2163C70.9724 13.2341 71.2916 13.3582 71.6107 13.5886C71.9121 13.8014 72.1248 14.0496 72.2489 14.3333C72.3908 14.617 72.4351 14.8918 72.3819 15.1577C72.3465 15.4236 72.2312 15.6719 72.0362 15.9023C71.8412 16.1151 71.5664 16.2747 71.2118 16.381ZM79.0535 27.1516C78.7166 26.9389 78.3355 26.7705 77.91 26.6464C77.5022 26.5223 77.0767 26.407 76.6334 26.3006C76.2079 26.1943 75.7913 26.079 75.3835 25.9549C74.9757 25.8131 74.6034 25.6181 74.2666 25.3698C73.5397 24.8202 73.1141 24.1465 72.99 23.3487C72.8837 22.5331 73.061 21.7176 73.5219 20.902C73.7701 20.4765 74.0981 20.1308 74.5059 19.8649C74.9137 19.5812 75.3569 19.3684 75.8356 19.2266C76.332 19.067 76.8373 18.9784 77.3515 18.9607C77.8656 18.9429 78.3532 18.9695 78.8142 19.0404C79.1156 19.0936 79.4347 19.1734 79.7715 19.2798C80.1084 19.3684 80.4187 19.4925 80.7023 19.6521C81.0037 19.8117 81.2697 20.0156 81.5002 20.2638C81.7484 20.4943 81.9257 20.7868 82.032 21.1414C82.103 21.3719 82.1118 21.5935 82.0586 21.8062C82.0232 22.019 81.9345 22.1963 81.7927 22.3381C81.6686 22.4799 81.5002 22.5863 81.2874 22.6572C81.0924 22.7282 80.8796 22.7459 80.6491 22.7104C80.3832 22.6572 80.135 22.5775 79.9045 22.4711C79.674 22.3647 79.4435 22.2495 79.2131 22.1254C78.9826 22.0013 78.7432 21.8949 78.495 21.8062C78.2645 21.7176 78.0163 21.6733 77.7504 21.6733C77.3426 21.6555 77.0058 21.7264 76.7398 21.886C76.4739 22.0456 76.2877 22.2406 76.1813 22.4711C76.0927 22.7016 76.1016 22.9498 76.2079 23.2157C76.332 23.4817 76.5802 23.7121 76.9526 23.9072C77.2894 24.0845 77.6617 24.2263 78.0695 24.3327C78.4773 24.439 78.8762 24.5454 79.2663 24.6518C79.674 24.7582 80.0641 24.8823 80.4364 25.0241C80.8264 25.166 81.1722 25.361 81.4736 25.6092C82.0586 26.0879 82.4132 26.6464 82.5373 27.2846C82.6792 27.9229 82.6437 28.5523 82.431 29.1728C82.2182 29.7933 81.8459 30.3429 81.314 30.8216C80.7998 31.3003 80.1882 31.6195 79.479 31.779C78.9649 31.8854 78.4064 31.9386 77.8036 31.9386C77.2185 31.9386 76.6334 31.8765 76.0484 31.7524C75.481 31.6283 74.9314 31.4333 74.3995 31.1674C73.8854 30.9014 73.451 30.5646 73.0964 30.1568C72.8482 29.8731 72.7152 29.554 72.6975 29.1994C72.6975 28.8271 72.7684 28.5079 72.9103 28.242C73.0698 27.9583 73.2914 27.7633 73.5751 27.6569C73.8588 27.5506 74.1779 27.6126 74.5325 27.8431C74.8162 28.0381 75.153 28.2331 75.5431 28.4282C75.9331 28.6055 76.3232 28.7473 76.7132 28.8537C77.1033 28.96 77.4756 29.0132 77.8302 29.0132C78.2025 29.0132 78.5216 28.9335 78.7876 28.7739C79.1776 28.5257 79.3815 28.242 79.3992 27.9229C79.417 27.586 79.3017 27.3289 79.0535 27.1516ZM15.4778 44.6358C15.5132 45.2031 15.531 45.7439 15.531 46.258C15.531 46.7544 15.5132 47.2863 15.4778 47.8537C15.4778 48.0664 15.4778 48.3058 15.4778 48.5717C15.4778 48.8377 15.46 49.0947 15.4246 49.3429C15.3891 49.5912 15.3271 49.8216 15.2384 50.0344C15.1498 50.2471 15.0168 50.4156 14.8395 50.5397C14.6268 50.6815 14.3874 50.779 14.1215 50.8322C13.8555 50.8677 13.6073 50.8499 13.3768 50.779C13.1464 50.7081 12.9425 50.5751 12.7652 50.3801C12.6056 50.1851 12.517 49.9103 12.4992 49.5557C12.446 48.7401 12.4195 47.9246 12.4195 47.109C12.4195 46.7013 12.4106 46.3112 12.3929 45.9389C12.3929 45.5666 12.4017 45.0436 12.4195 44.3698C12.4195 44.033 12.3929 43.6518 12.3397 43.2263C12.2865 42.7831 12.1535 42.4728 11.9408 42.2955C11.7812 42.1537 11.6039 42.0739 11.4089 42.0562C11.2139 42.0207 11.0188 42.0384 10.8238 42.1093C10.6465 42.1803 10.4869 42.3132 10.3451 42.5083C10.2033 42.6855 10.1058 42.916 10.0526 43.1997C10.0526 43.4302 10.0437 43.6695 10.026 43.9177C10.026 44.1482 10.0348 44.3698 10.0526 44.5826C10.0703 45.1499 10.0792 45.6907 10.0792 46.2048C10.0792 46.7013 10.0703 47.2331 10.0526 47.8005C10.0348 48.031 10.026 48.2792 10.026 48.5451C10.0437 48.8111 10.0437 49.077 10.026 49.3429C10.0083 49.5912 9.95506 49.8216 9.86642 50.0344C9.7955 50.2471 9.66253 50.4156 9.46751 50.5397C9.25475 50.6815 9.02427 50.7702 8.77606 50.8056C8.54558 50.8233 8.32396 50.7879 8.11121 50.6992C7.91618 50.5929 7.73889 50.4333 7.57932 50.2205C7.43749 50.0078 7.35771 49.7241 7.33998 49.3695C7.30452 48.9618 7.27792 48.5894 7.26019 48.2526C7.26019 47.898 7.26019 47.5257 7.26019 47.1356C7.26019 46.7279 7.26906 46.3112 7.28679 45.8857C7.30452 45.4425 7.29565 45.017 7.26019 44.6092C7.26019 44.4851 7.25133 44.3432 7.2336 44.1837C7.2336 44.0064 7.22474 43.8291 7.20701 43.6518C7.20701 43.4745 7.18928 43.3061 7.15382 43.1465C7.13609 42.9692 7.10063 42.8274 7.04744 42.721C6.90561 42.4728 6.64853 42.3132 6.27621 42.2423C5.92162 42.1714 5.62022 42.198 5.37201 42.3221C5.1238 42.4462 4.93764 42.6058 4.81354 42.8008C4.68943 42.9958 4.60078 43.2086 4.54759 43.439C4.49441 43.6695 4.46781 43.9177 4.46781 44.1837C4.46781 44.4319 4.46781 44.6712 4.46781 44.9017C4.46781 46.0541 4.46781 47.0558 4.46781 47.9069C4.48554 48.7401 4.39689 49.4139 4.20187 49.928C4.11322 50.194 3.92706 50.3978 3.64339 50.5397C3.37745 50.6815 3.08492 50.7524 2.76579 50.7524C2.46439 50.7524 2.18072 50.6815 1.91478 50.5397C1.64884 50.3978 1.47154 50.1762 1.38289 49.8748C1.32971 49.6798 1.27652 49.405 1.22333 49.0504C1.18787 48.6781 1.16128 48.2703 1.14355 47.8271C1.12582 47.3838 1.11695 46.9406 1.11695 46.4974C1.11695 46.0364 1.11695 45.6198 1.11695 45.2474V41.4179C1.09922 41.0101 1.09036 40.5669 1.09036 40.0882C1.09036 39.6095 1.16128 39.1751 1.30311 38.7851C1.42722 38.4482 1.62224 38.2355 1.88818 38.1468C2.15412 38.0404 2.42893 37.9961 2.7126 38.0138C3.03173 38.0138 3.27994 38.1025 3.45724 38.2798C3.65226 38.4394 3.79409 38.6432 3.88274 38.8915C3.97139 39.1219 4.02458 39.3879 4.04231 39.6893C4.06004 39.9729 4.07776 40.2478 4.09549 40.5137C4.29052 40.0705 4.521 39.707 4.78694 39.4233C5.07061 39.1219 5.46952 38.9269 5.98368 38.8383C7.29565 38.5901 8.34169 38.9269 9.12178 39.8488C9.47637 39.4943 9.92847 39.2017 10.4781 38.9712C10.9036 38.8117 11.338 38.7408 11.7812 38.7585C12.2244 38.7585 12.6411 38.8383 13.0311 38.9978C13.4389 39.1574 13.8023 39.3879 14.1215 39.6893C14.4583 39.9907 14.7243 40.3541 14.9193 40.7796C15.1852 41.347 15.3359 41.9764 15.3714 42.6678C15.4069 43.3593 15.4423 44.0153 15.4778 44.6358ZM29.3464 38.9712C29.506 39.2194 29.5769 39.4854 29.5592 39.7691C29.5592 40.1768 29.4882 40.5314 29.3464 40.8328C29.3109 40.9215 29.2578 41.0367 29.1868 41.1786C29.1336 41.3204 29.0716 41.4711 29.0007 41.6306C28.9475 41.7902 28.8854 41.9409 28.8145 42.0827C28.7436 42.2246 28.6904 42.331 28.655 42.4019L28.6018 42.5348C28.3536 43.0845 28.1142 43.6163 27.8837 44.1305C27.6532 44.6446 27.3962 45.1943 27.1125 45.7793C26.8288 46.3467 26.554 46.9051 26.2881 47.4548C26.0399 47.9866 25.7917 48.5097 25.5434 49.0238C25.4725 49.1656 25.4105 49.3075 25.3573 49.4493C25.3041 49.5734 25.2332 49.7064 25.1445 49.8482L23.868 52.5874C23.6375 53.0484 23.4159 53.5005 23.2032 53.9437C23.0081 54.387 22.7865 54.8302 22.5383 55.2734C22.4851 55.3621 22.4319 55.4419 22.3787 55.5128C22.3433 55.6014 22.3078 55.6901 22.2724 55.7787C22.1483 55.9915 21.9621 56.1954 21.7139 56.3904C21.4834 56.6031 21.2352 56.7184 20.9693 56.7361C20.4906 56.7716 20.0739 56.6297 19.7193 56.3106C19.5066 56.1865 19.3381 56.0092 19.214 55.7787C19.1431 55.6192 19.1077 55.4153 19.1077 55.1671C19.1254 55.0607 19.1343 54.9543 19.1343 54.8479C19.152 54.7593 19.1697 54.6706 19.1874 54.582C19.2229 54.4933 19.2495 54.4047 19.2672 54.316C19.285 54.2274 19.3116 54.1565 19.347 54.1033C19.4002 53.9615 19.4445 53.8905 19.48 53.8905L21.4214 49.6887C21.3327 49.4936 21.2441 49.2986 21.1554 49.1036C21.0668 48.8908 20.987 48.7047 20.9161 48.5451C20.6856 47.9955 20.4374 47.4193 20.1714 46.8165C19.9232 46.196 19.6661 45.5843 19.4002 44.9815C19.1343 44.361 18.8595 43.7582 18.5758 43.1731C18.2921 42.588 18.0084 42.0296 17.7248 41.4977C17.6184 41.3204 17.5209 41.1342 17.4322 40.9392C17.3436 40.7265 17.2727 40.5226 17.2195 40.3275C17.1663 40.1148 17.1486 39.902 17.1663 39.6893C17.184 39.4765 17.2638 39.2638 17.4056 39.051C17.5475 38.7851 17.7336 38.5989 17.9641 38.4925C18.1946 38.3684 18.4339 38.3152 18.6822 38.333C18.9481 38.333 19.1963 38.3862 19.4268 38.4925C19.6573 38.5989 19.8434 38.7408 19.9853 38.918C20.2867 39.2372 20.526 39.5918 20.7033 39.9818C20.8806 40.3719 21.049 40.7708 21.2086 41.1786C21.5455 41.8877 21.8912 42.6324 22.2458 43.4125C22.6004 44.1925 22.9549 44.9549 23.3095 45.6995L24.6924 42.7742C24.8343 42.4905 24.9584 42.2157 25.0647 41.9498C25.1889 41.6838 25.313 41.4268 25.4371 41.1786C25.5789 40.8771 25.7119 40.5669 25.836 40.2478C25.9778 39.9286 26.1374 39.6361 26.3147 39.3701C26.3501 39.2992 26.3856 39.2372 26.421 39.184C26.4565 39.1308 26.492 39.0687 26.5274 38.9978C26.687 38.7851 26.8288 38.6166 26.9529 38.4925C27.0416 38.4216 27.1125 38.3684 27.1657 38.333C27.2366 38.2798 27.3164 38.2443 27.405 38.2266C27.5291 38.1911 27.6444 38.1734 27.7508 38.1734C27.8749 38.1557 27.9901 38.1557 28.0965 38.1734C28.2738 38.2266 28.4865 38.3064 28.7347 38.4128C29.0007 38.5191 29.2046 38.7053 29.3464 38.9712Z" fill="#DDB948"/>
<path d="M51.8152 49.6091C52.6171 50.1345 53.2947 50.7567 53.8477 51.4757C54.4285 52.1671 54.8848 53.0243 55.2166 54.0475C55.5761 55.1813 55.7559 56.329 55.7559 57.4904C55.7835 58.6242 55.5761 59.6889 55.1336 60.6844C54.7188 61.6523 54.0413 62.5096 53.1011 63.2562C52.1885 63.9752 50.9856 64.4868 49.4923 64.791C48.6903 64.9846 47.7501 65.1367 46.6716 65.2473C45.5931 65.3579 44.6252 65.4132 43.7679 65.4132C42.6894 65.4409 41.5695 65.4409 40.408 65.4132C39.2742 65.4132 38.1681 65.3026 37.0896 65.0814C36.6194 64.9431 36.2738 64.7081 36.0525 64.3762C35.859 64.0167 35.7207 63.6157 35.6377 63.1733C35.5271 62.9244 35.4718 62.6755 35.4718 62.4266V38.8656C35.4718 38.0913 35.6239 37.4968 35.9281 37.082C36.2599 36.6395 36.6886 36.3215 37.214 36.1279C37.7394 35.9067 38.334 35.7822 38.9977 35.7546C39.6614 35.6993 40.3527 35.6716 41.0717 35.6716C41.6248 35.6716 42.1779 35.6716 42.7309 35.6716C43.3117 35.644 43.8924 35.644 44.4731 35.6716C45.3857 35.6993 46.3259 35.7822 47.2938 35.9205C48.2893 36.0311 49.2296 36.2523 50.1145 36.5842C50.5293 36.7225 50.9717 36.916 51.4419 37.1649C51.912 37.3861 52.2853 37.6627 52.5618 37.9945C53.4468 38.7965 54.0966 39.7367 54.5114 40.8152C54.9539 41.8661 55.1475 42.9446 55.0922 44.0507C55.0369 45.1292 54.7327 46.1662 54.1796 47.1618C53.6542 48.1573 52.866 48.9731 51.8152 49.6091ZM44.5561 60.6015C45.4133 60.5462 46.2844 60.4494 47.1694 60.3111C48.0543 60.1728 48.6627 59.9101 48.9945 59.523C49.354 59.0805 49.6029 58.5689 49.7412 57.9882C49.9071 57.3798 49.9486 56.7714 49.8656 56.1631C49.8103 55.527 49.6305 54.9325 49.3264 54.3794C49.0498 53.7987 48.6765 53.3424 48.2064 53.0105C47.5703 52.5128 46.8375 52.1947 46.0079 52.0565C45.1783 51.8905 44.3625 51.8076 43.5605 51.8076C43.1734 51.8076 42.8139 51.8214 42.482 51.8491C42.1779 51.8491 41.9013 51.8905 41.6524 51.9735C41.4312 52.0288 41.2653 52.1533 41.1547 52.3468C41.044 52.5404 40.9887 52.8308 40.9887 53.2179C41.044 53.9369 41.044 54.6559 40.9887 55.3749C40.9334 56.0939 40.9058 56.7853 40.9058 57.449C40.9058 57.8361 40.892 58.2647 40.8643 58.7349C40.8643 59.1773 41.0164 59.5506 41.3206 59.8548C41.6248 60.159 42.0672 60.3664 42.648 60.477C43.2287 60.5877 43.8647 60.6291 44.5561 60.6015ZM45.3857 40.6908C44.5284 40.6631 43.8094 40.6493 43.2287 40.6493C42.6756 40.6216 42.2332 40.6631 41.9013 40.7737C41.5971 40.8567 41.3759 41.0641 41.2376 41.3959C41.127 41.7001 41.0855 42.1702 41.1132 42.8063C41.1132 43.3317 41.0994 43.8571 41.0717 44.3825C41.0717 44.8803 41.0717 45.3781 41.0717 45.8759C41.0717 46.4289 41.2515 46.8437 41.611 47.1203C41.9705 47.3692 42.4129 47.5213 42.9383 47.5766C43.4914 47.6319 44.0583 47.6319 44.639 47.5766C45.2474 47.5213 45.7728 47.4521 46.2153 47.3692C47.2108 47.2032 47.9713 46.8714 48.4967 46.3736C49.0498 45.8482 49.3678 45.0877 49.4508 44.0922C49.5614 42.8478 49.2296 41.9905 48.4553 41.5204C47.7086 41.0226 46.6854 40.7461 45.3857 40.6908ZM81.2101 37.8286C81.376 39.156 81.4728 40.7046 81.5004 42.4744C81.5281 44.2166 81.5004 45.9865 81.4175 47.784C81.3621 49.5538 81.2377 51.2407 81.0441 52.8446C80.8506 54.4209 80.6155 55.6929 80.339 56.6608C80.1454 57.2415 79.9103 57.8499 79.6338 58.486C79.3849 59.0944 79.1084 59.6474 78.8042 60.1452C78.3617 60.8918 77.8225 61.5555 77.1864 62.1363C76.5504 62.6893 75.8452 63.1733 75.0709 63.5881C74.3243 63.9752 73.5223 64.2794 72.665 64.5007C71.8354 64.7219 71.0058 64.8463 70.1762 64.874C68.7106 64.9293 67.314 64.7219 65.9867 64.2518C64.6869 63.754 63.484 62.9797 62.3778 61.9289C61.5482 61.1269 60.8845 60.2696 60.3868 59.3571C59.889 58.4445 59.5019 57.4904 59.2253 56.4949C58.9488 55.4717 58.769 54.4209 58.6861 53.3424C58.6308 52.2639 58.6031 51.1577 58.6031 50.0239C58.6031 49.4985 58.5893 48.8486 58.5616 48.0743C58.5616 47.2724 58.5616 46.4566 58.5616 45.627C58.5616 44.7697 58.5616 43.9401 58.5616 43.1381C58.5616 42.3362 58.5755 41.6587 58.6031 41.1056C58.6031 40.7461 58.6031 40.3589 58.6031 39.9441C58.6031 39.5017 58.6169 39.073 58.6446 38.6582C58.6999 38.2158 58.7829 37.801 58.8935 37.4138C59.0041 36.999 59.17 36.6257 59.3912 36.2938C59.6401 35.9343 59.9858 35.6716 60.4283 35.5057C60.8707 35.3398 61.327 35.2568 61.7971 35.2568C62.2949 35.2568 62.765 35.3536 63.2075 35.5472C63.6499 35.7408 64.0094 36.0173 64.286 36.3768C64.4242 36.598 64.521 36.8192 64.5763 37.0405C64.6316 37.2617 64.6731 37.5106 64.7008 37.7871C64.7561 38.6997 64.7837 39.7367 64.7837 40.8982C64.8114 42.0596 64.8114 43.1934 64.7837 44.2996C64.7837 45.3781 64.7699 46.3736 64.7422 47.2862C64.7146 48.1988 64.7008 48.8763 64.7008 49.3187C64.7008 50.978 64.7837 52.4851 64.9496 53.8401C65.1156 55.1675 65.5027 56.2737 66.1111 57.1586C66.6642 57.9605 67.314 58.4721 68.0607 58.6934C68.8073 58.9146 69.554 58.9837 70.3006 58.9008C70.992 58.8178 71.6833 58.5689 72.3747 58.1541C73.0937 57.7117 73.6606 57.0756 74.0754 56.246C74.2413 55.9418 74.3796 55.5961 74.4902 55.209C74.6008 54.8218 74.6838 54.4623 74.7391 54.1305C74.8497 53.0797 74.9465 51.8629 75.0294 50.4802C75.1124 49.0699 75.1815 47.6319 75.2368 46.1662C75.2921 44.7006 75.3198 43.2626 75.3198 41.8522C75.3198 40.4419 75.306 39.1698 75.2783 38.036C75.3336 37.5382 75.4857 37.082 75.7346 36.6672C75.9558 36.3077 76.2739 35.9896 76.6887 35.7131C77.1035 35.4366 77.6704 35.2983 78.3894 35.2983C78.9701 35.3259 79.4402 35.478 79.7997 35.7546C80.1592 36.0035 80.4496 36.28 80.6708 36.5842C80.9197 36.9437 81.0994 37.3585 81.2101 37.8286ZM106.339 52.8446C106.477 53.2318 106.574 53.6742 106.629 54.172C106.712 54.6421 106.753 55.126 106.753 55.6238C106.753 56.1216 106.712 56.6193 106.629 57.1171C106.574 57.5872 106.491 58.002 106.38 58.3615C105.938 59.9101 105.053 61.2099 103.725 62.2607C102.398 63.2839 100.877 64.0305 99.1624 64.5007C97.4755 64.9708 95.7195 65.1367 93.8944 64.9984C92.0969 64.8602 90.493 64.4039 89.0826 63.6296C88.1977 63.1318 87.4372 62.5234 86.8012 61.8044C86.1652 61.0854 85.6259 60.2835 85.1834 59.3985C85.0175 59.0944 84.9069 58.7487 84.8516 58.3615C84.8239 57.9467 84.8654 57.5596 84.976 57.2001C85.0867 56.8129 85.2664 56.4811 85.5153 56.2045C85.7642 55.9003 86.1098 55.6929 86.5523 55.5823C86.8288 55.527 87.133 55.4994 87.4649 55.4994C87.8244 55.4994 88.1701 55.5547 88.5019 55.6653C88.8337 55.7482 89.1379 55.9003 89.4145 56.1216C89.691 56.3151 89.9122 56.5917 90.0782 56.9512C90.3824 57.5319 90.811 58.0712 91.3641 58.5689C91.9448 59.039 92.5532 59.4262 93.1892 59.7304C94.1018 60.0346 95.0144 60.159 95.9269 60.1037C96.8672 60.0484 97.7106 59.841 98.4573 59.4815C99.2316 59.122 99.8538 58.6381 100.324 58.0297C100.794 57.3936 101.029 56.6746 101.029 55.8727C101.029 55.209 100.932 54.6697 100.739 54.2549C100.545 53.8125 100.269 53.453 99.9091 53.1764C99.5772 52.8723 99.1624 52.6234 98.6647 52.4298C98.1945 52.2362 97.6691 52.0703 97.0884 51.932C96.4247 51.7938 95.7472 51.697 95.0558 51.6417C94.3921 51.5864 93.7146 51.5172 93.0233 51.4343C92.3319 51.3513 91.6544 51.2407 90.9907 51.1024C90.327 50.9641 89.6772 50.7567 89.0411 50.4802C87.7691 49.9548 86.8012 49.1528 86.1375 48.0743C85.4738 46.9958 85.0728 45.8344 84.9346 44.59C84.8239 43.3455 84.976 42.1149 85.3908 40.8982C85.8057 39.6538 86.4693 38.5891 87.3819 37.7042C88.2668 36.9022 89.3177 36.3353 90.5344 36.0035C91.7789 35.644 93.1477 35.4366 94.641 35.3813C95.4706 35.3536 96.3003 35.3813 97.1299 35.4642C97.9871 35.5472 98.8029 35.6854 99.5772 35.879C100.379 36.0726 101.112 36.3215 101.776 36.6257C102.467 36.9299 103.062 37.2894 103.559 37.7042C103.919 37.9807 104.278 38.354 104.638 38.8241C104.997 39.2666 105.274 39.7505 105.467 40.276C105.661 40.7737 105.716 41.2577 105.633 41.7278C105.578 42.1979 105.288 42.5989 104.762 42.9307C104.32 43.2073 103.891 43.3317 103.476 43.3041C103.089 43.2487 102.716 43.1243 102.356 42.9307C101.997 42.7095 101.651 42.4606 101.319 42.1841C100.988 41.9075 100.683 41.6587 100.407 41.4374C99.6602 40.8843 98.7338 40.511 97.6276 40.3174C96.5215 40.1239 95.4845 40.0824 94.5166 40.193C93.9082 40.276 93.3413 40.4142 92.8159 40.6078C92.2905 40.8014 91.8342 41.0641 91.447 41.3959C91.0875 41.7278 90.7972 42.1426 90.5759 42.6404C90.3824 43.1105 90.3132 43.6497 90.3685 44.2581C90.3962 44.7006 90.5206 45.0739 90.7419 45.3781C90.9907 45.6823 91.2811 45.9312 91.6129 46.1247C91.9724 46.3183 92.3596 46.4704 92.7744 46.581C93.1892 46.6916 93.604 46.7746 94.0188 46.8299C95.2632 46.9958 96.5077 47.1203 97.7521 47.2032C98.9965 47.2862 100.213 47.5627 101.402 48.0328C102.619 48.503 103.656 49.139 104.513 49.941C105.371 50.7429 105.979 51.7108 106.339 52.8446Z" fill="#DDB948"/>
<path d="M81.4488 16.5845C81.0024 16.1218 80.5889 15.621 80.2083 15.082C79.8476 14.5288 79.5739 13.9293 79.3871 13.2833C79.1274 12.4495 79.0638 11.5968 79.1964 10.7253C79.329 9.85385 79.609 9.04282 80.0364 8.29226C80.4896 7.49353 81.0233 6.78758 81.6374 6.1744C82.2575 5.52716 82.9351 5.00382 83.6702 4.60438C84.4254 4.19084 85.221 3.89827 86.0572 3.72666C86.8993 3.521 87.7861 3.46331 88.7174 3.5536C89.7169 3.65562 90.6202 3.96026 91.4271 4.46752C92.2399 4.94071 92.9242 5.54957 93.4798 6.29411C94.0554 7.02456 94.5013 7.84663 94.8174 8.76033C95.1393 9.63997 95.3162 10.5472 95.3481 11.4821C95.3481 11.4821 95.3522 11.5091 95.3604 11.5632C95.3453 12.262 95.252 12.9561 95.0806 13.6456C94.8952 14.3151 94.7608 14.9934 94.6775 15.6804C94.5625 16.4498 94.6343 17.1022 94.8928 17.6377C95.1371 18.1533 95.4238 18.7287 95.7527 19.3641C96.0876 19.9653 96.2832 20.5602 96.3397 21.1486C96.402 21.703 96.1167 22.1887 95.4837 22.6057C95.0504 22.8818 94.6393 22.9776 94.2505 22.8931C93.8676 22.7745 93.5065 22.5808 93.167 22.3118C92.8334 22.0089 92.5426 21.6607 92.2948 21.2673C92.0328 20.8539 91.816 20.4834 91.6445 20.1557C91.2709 19.3724 91.0253 18.5585 90.9077 17.7141C90.776 16.8497 90.7424 15.9759 90.8069 15.0926C90.855 14.6099 90.9242 14.1571 91.0146 13.7343C91.0908 13.2915 91.1401 12.8528 91.1623 12.4183C91.1846 11.9837 91.1628 11.5503 91.097 11.1181C91.0311 10.6859 90.8801 10.239 90.644 9.7775C90.436 9.3559 90.1382 8.99772 89.7506 8.70298C89.3489 8.38828 88.9225 8.16579 88.4715 8.03549C88.0064 7.88523 87.5336 7.8301 87.0533 7.87011C86.5588 7.89015 86.1049 8.03116 85.6915 8.29314C85.3181 8.52692 84.974 8.84467 84.6593 9.24639C84.3305 9.62815 84.081 10.0586 83.9108 10.5379C83.7264 10.9971 83.6372 11.464 83.6432 11.9385C83.6691 12.3989 83.833 12.8217 84.1349 13.2069C84.324 13.4323 84.5402 13.6537 84.7833 13.8709C85.0324 14.0541 85.2514 14.2584 85.4406 14.4839C85.6356 14.6753 85.7806 14.902 85.8758 15.1639C85.9909 15.4117 86.0092 15.7129 85.9306 16.0676C85.8109 16.6608 85.5713 17.0842 85.212 17.338C84.8385 17.5717 84.4245 17.6845 83.97 17.6764C83.5155 17.6682 83.0586 17.572 82.5993 17.3877C82.1459 17.1693 81.7624 16.9016 81.4488 16.5845ZM100.625 25.4378C101.034 26.0167 101.181 26.6909 101.066 27.4602C100.957 28.1954 100.622 28.7604 100.063 29.1551C99.5244 29.5357 98.8902 29.6544 98.1609 29.5113C97.4033 29.3282 96.8271 28.9571 96.4324 28.3981C95.9954 27.7792 95.8385 27.1122 95.9617 26.3969C96.0567 25.6417 96.3738 25.0737 96.9128 24.6931C97.4718 24.2984 98.123 24.1826 98.8665 24.3458C99.6159 24.4748 100.202 24.8388 100.625 25.4378Z" fill="#DDB948"/>
</svg>
