<svg width="140" height="135" viewBox="0 0 140 135" fill="none" xmlns="http://www.w3.org/2000/svg">
<path d="M117.498 119.113V129.759C117.499 130.402 117.372 131.039 117.126 131.633C116.88 132.227 116.52 132.766 116.066 133.22C115.611 133.675 115.071 134.034 114.476 134.28C113.882 134.525 113.246 134.651 112.603 134.65H102.814C102.171 134.651 101.534 134.525 100.94 134.28C100.346 134.034 99.8063 133.675 99.3515 133.22C98.8968 132.766 98.5362 132.227 98.2904 131.633C98.0446 131.039 97.9186 130.402 97.9193 129.759V119.113M41.6448 119.113V129.759C41.6455 130.402 41.5195 131.039 41.2737 131.633C41.0279 132.227 40.6672 132.766 40.2125 133.22C39.7578 133.675 39.218 134.034 38.6239 134.28C38.0297 134.525 37.3926 134.651 36.7498 134.65H26.9605C26.3177 134.651 25.6812 134.525 25.087 134.28C24.4929 134.034 23.9531 133.675 23.4984 133.22C23.0437 132.766 22.6831 132.227 22.4372 131.633C22.1914 131.039 22.0654 130.402 22.0661 129.759V119.113" fill="#2B4255"/>
<path d="M127.282 119.696H12.2767V12.4709C12.2754 10.8303 12.5978 9.20588 13.2259 7.69028C13.854 6.17467 14.7751 4.79791 15.9366 3.63921C17.098 2.48051 18.4772 1.56219 19.9943 0.937687C21.5114 0.313187 23.1367 -0.00518659 24.7773 6.38975e-05H114.781C116.422 -0.00518659 118.047 0.313187 119.564 0.937687C121.081 1.56219 122.461 2.48051 123.622 3.63921C124.784 4.79791 125.705 6.17467 126.333 7.69028C126.961 9.20588 127.284 10.8303 127.282 12.4709V119.696Z" fill="#F8B84E"/>
<path d="M7.47665 94.804H132.087V109.757H7.47665V94.804Z" fill="#34485C"/>
<path d="M15.2123 25.4255H69.0442V75.2698H15.2123V25.4255ZM70.7788 25.4255H123.375V75.2698H70.7788V25.4255Z" fill="#4BBFEB"/>
<path fill-rule="evenodd" clip-rule="evenodd" d="M12.2767 21.9815V26.9659H127.237V21.9815H12.2767ZM12.2767 73.3609V78.3454H127.367V73.3609H12.2767Z" fill="#34485C"/>
<path fill-rule="evenodd" clip-rule="evenodd" d="M20.5656 83.1503V88.1348H35.5189V83.1503H20.5656ZM103.766 83.1503V88.1348H118.719V83.1503H103.766Z" fill="#F05542"/>
<path fill-rule="evenodd" clip-rule="evenodd" d="M67.2898 24.0247V75.3646H72.2743V24.0247H67.2898Z" fill="#34485C"/>
<path fill-rule="evenodd" clip-rule="evenodd" d="M0 31.7958V52.6456H4.98443V36.7803H12.4611V31.7958H0ZM127.103 31.7958V36.7803H134.58V52.6456H139.564V31.7958H127.103Z" fill="#576D7E"/>
<path fill-rule="evenodd" clip-rule="evenodd" d="M12.2767 24.0247V75.3646H17.2611V24.0247H12.2767ZM122.383 24.0247V75.3646H127.367V24.0247H122.383Z" fill="#34485C"/>
</svg>
